<?xml version="1.0" encoding="UTF-8" standalone="no"?>
<svg
   version="1.1"
   viewBox="0 0 64 64"
   id="svg14"
   sodipodi:docname="hand.svg"
   inkscape:version="1.2 (dc2aedaf03, 2022-05-15)"
   width="64"
   height="64"
   xmlns:inkscape="http://www.inkscape.org/namespaces/inkscape"
   xmlns:sodipodi="http://sodipodi.sourceforge.net/DTD/sodipodi-0.dtd"
   xmlns="http://www.w3.org/2000/svg"
   xmlns:svg="http://www.w3.org/2000/svg">
  <defs
     id="defs18" />
  <sodipodi:namedview
     id="namedview16"
     pagecolor="#ffffff"
     bordercolor="#000000"
     borderopacity="0.25"
     inkscape:showpageshadow="2"
     inkscape:pageopacity="0.0"
     inkscape:pagecheckerboard="0"
     inkscape:deskcolor="#d1d1d1"
     showgrid="true"
     inkscape:zoom="8"
     inkscape:cx="35.3125"
     inkscape:cy="35.8125"
     inkscape:window-width="1407"
     inkscape:window-height="878"
     inkscape:window-x="140"
     inkscape:window-y="1136"
     inkscape:window-maximized="0"
     inkscape:current-layer="svg14">
    <inkscape:grid
       type="xygrid"
       id="grid301"
       originx="0"
       originy="0" />
  </sodipodi:namedview>
  <rect
     style="fill:#dde9af;stroke:none;stroke-width:0.1;stroke-linecap:round;stroke-linejoin:round;stroke-dasharray:none;paint-order:markers fill stroke"
     id="rect12123"
     width="33"
     height="21"
     x="7"
     y="5" />
  <path
     style="color:#000000;fill:#cccccc;stroke:#000000;stroke-width:0.1;stroke-linecap:round;stroke-linejoin:round;stroke-dasharray:none;paint-order:markers fill stroke"
     d="m 28,10.5 c -0.276131,2.8e-5 -0.499972,0.223869 -0.5,0.5 v 1 c 0,1.374788 1.125211,2.5 2.5,2.5 1.374788,0 2.5,-1.125212 2.5,-2.5 v -1 c -2.8e-5,-0.276131 -0.223869,-0.499972 -0.5,-0.5 z"
     id="path10062"
     sodipodi:nodetypes="ccsssccc" />
  <path
     style="color:#000000;fill:#aaffcc;stroke:#000000;stroke-width:0.1;stroke-linecap:round;stroke-linejoin:round;stroke-dasharray:none;paint-order:markers fill stroke"
     d="M 29.5,11 V 7 C 29.5,6.7238576 29.276142,6.5 29,6.5 28.723858,6.5 28.5,6.7238576 28.5,7 v 4"
     id="path10052"
     sodipodi:nodetypes="csssc" />
  <path
     style="color:#000000;fill:#aaaaff;stroke:#000000;stroke-width:0.1;stroke-linecap:round;stroke-linejoin:round;stroke-dasharray:none;paint-order:markers fill stroke"
     d="M 30.5,11 V 6 C 30.5,5.7238576 30.276142,5.5 30,5.5 29.723858,5.5 29.5,5.7238576 29.5,6 v 5"
     id="path10054"
     sodipodi:nodetypes="csssc" />
  <path
     style="color:#000000;fill:#ffaaaa;stroke:#000000;stroke-width:0.1;stroke-linecap:round;stroke-linejoin:round;stroke-dasharray:none;paint-order:markers fill stroke"
     d="M 31.5,11 V 7 C 31.5,6.7238576 31.276142,6.5 31,6.5 30.723858,6.5 30.5,6.7238576 30.5,7 v 4"
     id="path10056"
     sodipodi:nodetypes="csssc" />
  <path
     style="color:#000000;fill:#dde9af;stroke:#000000;stroke-width:0.1;stroke-linecap:round;stroke-linejoin:round;stroke-dasharray:none;paint-order:markers fill stroke"
     d="M 28.482422,10.871094 27.707031,7.9726562 C 27.635557,7.7054845 27.360766,7.5470858 27.09375,7.6191406 26.826578,7.6906146 26.668179,7.965406 26.740234,8.2324219 l 0.777344,2.8964841"
     id="path10058"
     sodipodi:nodetypes="csccc" />
  <path
     style="color:#000000;fill:#cccccc;stroke:#000000;stroke-width:0.1;stroke-linecap:round;stroke-linejoin:round;stroke-dasharray:none;paint-order:markers fill stroke"
     d="M 32.5,12 V 10 C 32.499972,9.7238691 32.276131,9.5000276 32,9.5 h -2 c -0.276142,0 -0.5,0.2238576 -0.5,0.5 0,0.276142 0.223858,0.5 0.5,0.5 h 1.5 V 12"
     id="path10060"
     sodipodi:nodetypes="cccssscc" />
  <path
     style="color:#000000;fill:#cccccc;stroke:#000000;stroke-width:0.1;stroke-linecap:round;stroke-linejoin:round;stroke-dasharray:none;paint-order:markers fill stroke"
     d="m 10,10.5 c -0.2761309,2.8e-5 -0.4999724,0.223869 -0.5,0.5 v 1 c 0,1.374788 1.125212,2.5 2.5,2.5 1.374789,0 2.5,-1.125212 2.5,-2.5 v -1 c -2.8e-5,-0.276131 -0.223869,-0.499972 -0.5,-0.5 z"
     id="path10077"
     sodipodi:nodetypes="ccsssccc" />
  <path
     style="color:#000000;fill:#cccccc;stroke:#000000;stroke-width:0.1;stroke-linecap:round;stroke-linejoin:round;stroke-dasharray:none;paint-order:markers fill stroke"
     d="M 11,8.5 A 0.5,0.5 0 0 0 10.5,9 v 2 A 0.5,0.5 0 0 0 11,11.5 0.5,0.5 0 0 0 11.5,11 V 9 A 0.5,0.5 0 0 0 11,8.5 Z"
     id="path10067" />
  <path
     style="color:#000000;fill:#cccccc;stroke:#000000;stroke-width:0.1;stroke-linecap:round;stroke-linejoin:round;stroke-dasharray:none;paint-order:markers fill stroke"
     d="M 12,8.5 A 0.5,0.5 0 0 0 11.5,9 v 2 A 0.5,0.5 0 0 0 12,11.5 0.5,0.5 0 0 0 12.5,11 V 9 A 0.5,0.5 0 0 0 12,8.5 Z"
     id="path10069" />
  <path
     style="color:#000000;fill:#ffaaaa;stroke:#000000;stroke-width:0.1;stroke-linecap:round;stroke-linejoin:round;stroke-dasharray:none;paint-order:markers fill stroke"
     d="M 13.5,11 V 7 C 13.5,6.7238576 13.276142,6.5 13,6.5 12.723858,6.5 12.5,6.7238576 12.5,7 v 4"
     id="path10071"
     sodipodi:nodetypes="csssc" />
  <path
     style="color:#000000;fill:#cccccc;stroke:#000000;stroke-width:0.1;stroke-linecap:round;stroke-linejoin:round;stroke-dasharray:none;paint-order:markers fill stroke"
     d="M 10,9.5 A 0.5,0.5 0 0 0 9.5,10 v 1 A 0.5,0.5 0 0 0 10,11.5 0.5,0.5 0 0 0 10.5,11 V 10 A 0.5,0.5 0 0 0 10,9.5 Z"
     id="path10073" />
  <path
     style="color:#000000;fill:#cccccc;stroke:#000000;stroke-width:0.1;stroke-linecap:round;stroke-linejoin:round;stroke-dasharray:none;paint-order:markers fill stroke"
     d="M 14.5,12 V 10 C 14.499972,9.7238691 14.276131,9.5000276 14,9.5 h -2 c -0.276142,0 -0.5,0.2238576 -0.5,0.5 0,0.276142 0.223858,0.5 0.5,0.5 h 1.5 V 12"
     id="path10075"
     sodipodi:nodetypes="cccssscc" />
  <path
     style="color:#000000;fill:#cccccc;stroke:#000000;stroke-width:0.1;stroke-linecap:round;stroke-linejoin:round;stroke-dasharray:none;paint-order:markers fill stroke"
     d="m 16,10.5 c -0.276131,2.8e-5 -0.499972,0.223869 -0.5,0.5 v 1 c 0,1.374788 1.125211,2.5 2.5,2.5 1.374788,0 2.5,-1.125212 2.5,-2.5 v -1 c -2.8e-5,-0.276131 -0.223869,-0.499972 -0.5,-0.5 z"
     id="path10089"
     sodipodi:nodetypes="ccsssccc" />
  <path
     style="color:#000000;fill:#cccccc;stroke:#000000;stroke-width:0.1;stroke-linecap:round;stroke-linejoin:round;stroke-dasharray:none;paint-order:markers fill stroke"
     d="M 17,8.5 A 0.5,0.5 0 0 0 16.5,9 v 2 A 0.5,0.5 0 0 0 17,11.5 0.5,0.5 0 0 0 17.5,11 V 9 A 0.5,0.5 0 0 0 17,8.5 Z"
     id="path10079" />
  <path
     style="color:#000000;fill:#aaaaff;stroke:#000000;stroke-width:0.1;stroke-linecap:round;stroke-linejoin:round;stroke-dasharray:none;paint-order:markers fill stroke"
     d="M 18.5,11 V 6 C 18.5,5.7238576 18.276142,5.5 18,5.5 17.723858,5.5 17.5,5.7238576 17.5,6 v 5"
     id="path10081"
     sodipodi:nodetypes="csssc" />
  <path
     style="color:#000000;fill:#ffaaaa;stroke:#000000;stroke-width:0.1;stroke-linecap:round;stroke-linejoin:round;stroke-dasharray:none;paint-order:markers fill stroke"
     d="M 19.5,11 V 7 C 19.5,6.7238576 19.276142,6.5 19,6.5 18.723858,6.5 18.5,6.7238576 18.5,7 v 4"
     id="path10083"
     sodipodi:nodetypes="csssc" />
  <path
     style="color:#000000;fill:#cccccc;stroke:#000000;stroke-width:0.1;stroke-linecap:round;stroke-linejoin:round;stroke-dasharray:none;paint-order:markers fill stroke"
     d="M 16,9.5 A 0.5,0.5 0 0 0 15.5,10 v 1 A 0.5,0.5 0 0 0 16,11.5 0.5,0.5 0 0 0 16.5,11 V 10 A 0.5,0.5 0 0 0 16,9.5 Z"
     id="path10085" />
  <path
     style="color:#000000;fill:#cccccc;stroke:#000000;stroke-width:0.1;stroke-linecap:round;stroke-linejoin:round;stroke-dasharray:none;paint-order:markers fill stroke"
     d="M 20.5,12 V 10 C 20.499972,9.7238691 20.276131,9.5000276 20,9.5 h -2 c -0.276142,0 -0.5,0.2238576 -0.5,0.5 0,0.276142 0.223858,0.5 0.5,0.5 h 1.5 V 12"
     id="path10087"
     sodipodi:nodetypes="cccssscc" />
  <path
     style="color:#000000;fill:#cccccc;stroke:#000000;stroke-width:0.1;stroke-linecap:round;stroke-linejoin:round;stroke-dasharray:none;paint-order:markers fill stroke"
     d="m 22,10.5 c -0.276131,2.8e-5 -0.499972,0.223869 -0.5,0.5 v 1 c 0,1.374788 1.125211,2.5 2.5,2.5 1.374788,0 2.5,-1.125212 2.5,-2.5 v -1 c -2.8e-5,-0.276131 -0.223869,-0.499972 -0.5,-0.5 z"
     id="path10101"
     sodipodi:nodetypes="ccsssccc" />
  <path
     style="color:#000000;fill:#aaffcc;stroke:#000000;stroke-width:0.1;stroke-linecap:round;stroke-linejoin:round;stroke-dasharray:none;paint-order:markers fill stroke"
     d="M 23.5,11 V 7 C 23.5,6.7238576 23.276142,6.5 23,6.5 22.723858,6.5 22.5,6.7238576 22.5,7 v 4"
     id="path10091"
     sodipodi:nodetypes="csssc" />
  <path
     style="color:#000000;fill:#aaaaff;stroke:#000000;stroke-width:0.1;stroke-linecap:round;stroke-linejoin:round;stroke-dasharray:none;paint-order:markers fill stroke"
     d="M 24.5,11 V 6 C 24.5,5.7238576 24.276142,5.5 24,5.5 23.723858,5.5 23.5,5.7238576 23.5,6 v 5"
     id="path10093"
     sodipodi:nodetypes="csssc" />
  <path
     style="color:#000000;fill:#cccccc;stroke:#000000;stroke-width:0.1;stroke-linecap:round;stroke-linejoin:round;stroke-dasharray:none;paint-order:markers fill stroke"
     d="M 25,8.5 A 0.5,0.5 0 0 0 24.5,9 v 2 A 0.5,0.5 0 0 0 25,11.5 0.5,0.5 0 0 0 25.5,11 V 9 A 0.5,0.5 0 0 0 25,8.5 Z"
     id="path10095" />
  <path
     style="color:#000000;fill:#dde9af;stroke:#000000;stroke-width:0.1;stroke-linecap:round;stroke-linejoin:round;stroke-dasharray:none;paint-order:markers fill stroke"
     d="M 22.482422,10.871094 21.707031,7.9726562 C 21.635557,7.7054845 21.360766,7.5470858 21.09375,7.6191406 20.826578,7.6906146 20.668179,7.965406 20.740234,8.2324219 l 0.777344,2.8964841"
     id="path10097"
     sodipodi:nodetypes="csccc" />
  <path
     style="color:#000000;fill:#cccccc;stroke:#000000;stroke-width:0.1;stroke-linecap:round;stroke-linejoin:round;stroke-dasharray:none;paint-order:markers fill stroke"
     d="M 26.5,12 V 10 C 26.499972,9.7238691 26.276131,9.5000276 26,9.5 h -2 c -0.276142,0 -0.5,0.2238576 -0.5,0.5 0,0.276142 0.223858,0.5 0.5,0.5 h 1.5 V 12"
     id="path10099"
     sodipodi:nodetypes="cccssscc" />
  <path
     style="color:#000000;fill:#cccccc;stroke:#000000;stroke-width:0.1;stroke-linecap:round;stroke-linejoin:round;stroke-dasharray:none;paint-order:markers fill stroke"
     d="m 34,10.5 c -0.276131,2.8e-5 -0.499972,0.223869 -0.5,0.5 v 1 c 0,1.374788 1.125211,2.5 2.5,2.5 1.374788,0 2.5,-1.125212 2.5,-2.5 v -1 c -2.8e-5,-0.276131 -0.223869,-0.499972 -0.5,-0.5 z"
     id="path10113"
     sodipodi:nodetypes="ccsssccc" />
  <path
     style="color:#000000;fill:#aaffcc;stroke:#000000;stroke-width:0.1;stroke-linecap:round;stroke-linejoin:round;stroke-dasharray:none;paint-order:markers fill stroke"
     d="M 35.5,11 V 7 C 35.5,6.7238576 35.276142,6.5 35,6.5 34.723858,6.5 34.5,6.7238576 34.5,7 v 4"
     id="path10103"
     sodipodi:nodetypes="csssc" />
  <path
     style="color:#000000;fill:#aaaaff;stroke:#000000;stroke-width:0.1;stroke-linecap:round;stroke-linejoin:round;stroke-dasharray:none;paint-order:markers fill stroke"
     d="M 36.5,11 V 6 C 36.5,5.7238576 36.276142,5.5 36,5.5 35.723858,5.5 35.5,5.7238576 35.5,6 v 5"
     id="path10105"
     sodipodi:nodetypes="csssc" />
  <path
     style="color:#000000;fill:#ffaaaa;stroke:#000000;stroke-width:0.1;stroke-linecap:round;stroke-linejoin:round;stroke-dasharray:none;paint-order:markers fill stroke"
     d="M 37.5,11 V 7 C 37.5,6.7238576 37.276142,6.5 37,6.5 36.723858,6.5 36.5,6.7238576 36.5,7 v 4"
     id="path10107"
     sodipodi:nodetypes="csssc" />
  <path
     style="color:#000000;fill:#dde9af;stroke:#000000;stroke-width:0.1;stroke-linecap:round;stroke-linejoin:round;stroke-dasharray:none;paint-order:markers fill stroke"
     d="M 34.482422,10.871094 33.707031,7.9726562 C 33.635557,7.7054845 33.360766,7.5470858 33.09375,7.6191406 32.826578,7.6906146 32.668179,7.965406 32.740234,8.2324219 l 0.777344,2.8964841"
     id="path10109"
     sodipodi:nodetypes="csccc" />
  <path
     style="color:#000000;fill:#eeaaff;stroke:#000000;stroke-width:0.1;stroke-linecap:round;stroke-linejoin:round;stroke-dasharray:none;paint-order:markers fill stroke"
     d="M 38.482422,11.128906 38.742187,10.164063 39,9.1972656 C 39.07081,8.9308825 38.91268,8.6574392 38.646484,8.5859375 38.380101,8.5151305 38.106658,8.6732555 38.035156,8.9394531 l -0.259765,0.9648438 -0.257813,0.9667971"
     id="path10111"
     sodipodi:nodetypes="ccccccc" />
  <path
     style="color:#000000;fill:#cccccc;stroke:#000000;stroke-width:0.1;stroke-linecap:round;stroke-linejoin:round;stroke-dasharray:none;paint-order:markers fill stroke"
     d="m 10,19.5 c -0.2761309,2.8e-5 -0.4999724,0.223869 -0.5,0.5 v 1 c 0,1.374788 1.125211,2.5 2.5,2.5 1.374788,0 2.5,-1.125212 2.5,-2.5 v -1 c -2.8e-5,-0.276131 -0.223869,-0.499972 -0.5,-0.5 z"
     id="path10137"
     sodipodi:nodetypes="ccsssccc" />
  <path
     style="color:#000000;fill:#cccccc;stroke-linecap:round;stroke-linejoin:round;paint-order:markers fill stroke;stroke:#000000;stroke-width:0.1;stroke-dasharray:none"
     d="M 11,17.5 A 0.5,0.5 0 0 0 10.5,18 v 2 A 0.5,0.5 0 0 0 11,20.5 0.5,0.5 0 0 0 11.5,20 V 18 A 0.5,0.5 0 0 0 11,17.5 Z"
     id="path10127" />
  <path
     style="color:#000000;fill:#cccccc;stroke-linecap:round;stroke-linejoin:round;paint-order:markers fill stroke;stroke:#000000;stroke-width:0.1;stroke-dasharray:none"
     d="M 12,17.5 A 0.5,0.5 0 0 0 11.5,18 v 2 A 0.5,0.5 0 0 0 12,20.5 0.5,0.5 0 0 0 12.5,20 V 18 A 0.5,0.5 0 0 0 12,17.5 Z"
     id="path10129" />
  <path
     style="color:#000000;fill:#cccccc;stroke-linecap:round;stroke-linejoin:round;paint-order:markers fill stroke;stroke:#000000;stroke-width:0.1;stroke-dasharray:none"
     d="M 13,17.5 A 0.5,0.5 0 0 0 12.5,18 v 2 A 0.5,0.5 0 0 0 13,20.5 0.5,0.5 0 0 0 13.5,20 V 18 A 0.5,0.5 0 0 0 13,17.5 Z"
     id="path10131" />
  <path
     style="color:#000000;fill:#dde9af;stroke:#000000;stroke-width:0.1;stroke-linecap:round;stroke-linejoin:round;stroke-dasharray:none;paint-order:markers fill stroke"
     d="M 10.482422,19.871094 9.7070313,16.972656 C 9.6355568,16.705484 9.3607656,16.547086 9.09375,16.619141 8.8265783,16.690611 8.6681796,16.965406 8.7402344,17.232422 l 0.7773437,2.896484"
     id="path10133"
     sodipodi:nodetypes="ccccc" />
  <path
     style="color:#000000;fill:#eeaaff;stroke:#000000;stroke-width:0.1;stroke-linecap:round;stroke-linejoin:round;stroke-dasharray:none;paint-order:markers fill stroke"
     d="M 14.482422,20.128906 14.742188,19.164062 15,18.197266 c 0.07081,-0.266383 -0.08732,-0.539827 -0.353516,-0.611329 -0.266383,-0.07081 -0.539826,0.08732 -0.611328,0.353516 l -0.259765,0.964844 -0.257813,0.966797"
     id="path10135"
     sodipodi:nodetypes="ccccccc" />
  <path
     style="color:#000000;fill:#cccccc;stroke:#000000;stroke-width:0.1;stroke-linecap:round;stroke-linejoin:round;stroke-dasharray:none;paint-order:markers fill stroke"
     d="m 22,19.5 c -0.276131,2.8e-5 -0.499972,0.223869 -0.5,0.5 v 1 c 0,1.374788 1.125211,2.5 2.5,2.5 1.374788,0 2.5,-1.125212 2.5,-2.5 v -1 c -2.8e-5,-0.276131 -0.223869,-0.499972 -0.5,-0.5 z"
     id="path10161"
     sodipodi:nodetypes="ccsssccc" />
  <path
     style="color:#000000;fill:#cccccc;stroke-linecap:round;stroke-linejoin:round;paint-order:markers fill stroke;stroke:#000000;stroke-width:0.1;stroke-dasharray:none"
     d="M 23,17.5 A 0.5,0.5 0 0 0 22.5,18 v 2 A 0.5,0.5 0 0 0 23,20.5 0.5,0.5 0 0 0 23.5,20 V 18 A 0.5,0.5 0 0 0 23,17.5 Z"
     id="path10151" />
  <path
     style="color:#000000;fill:#cccccc;stroke-linecap:round;stroke-linejoin:round;paint-order:markers fill stroke;stroke:#000000;stroke-width:0.1;stroke-dasharray:none"
     d="M 24,17.5 A 0.5,0.5 0 0 0 23.5,18 v 2 A 0.5,0.5 0 0 0 24,20.5 0.5,0.5 0 0 0 24.5,20 V 18 A 0.5,0.5 0 0 0 24,17.5 Z"
     id="path10153" />
  <path
     style="color:#000000;fill:#ffaaaa;stroke:#000000;stroke-width:0.1;stroke-linecap:round;stroke-linejoin:round;stroke-dasharray:none;paint-order:markers fill stroke"
     d="m 25.5,20 v -4 c 0,-0.276142 -0.223858,-0.5 -0.5,-0.5 -0.276142,0 -0.5,0.223858 -0.5,0.5 v 4"
     id="path10155"
     sodipodi:nodetypes="csssc" />
  <path
     style="color:#000000;fill:#cccccc;stroke-linecap:round;stroke-linejoin:round;paint-order:markers fill stroke;stroke:#000000;stroke-width:0.1;stroke-dasharray:none"
     d="M 22,18.5 A 0.5,0.5 0 0 0 21.5,19 v 1 A 0.5,0.5 0 0 0 22,20.5 0.5,0.5 0 0 0 22.5,20 V 19 A 0.5,0.5 0 0 0 22,18.5 Z"
     id="path10157" />
  <path
     style="color:#000000;fill:#eeaaff;stroke:#000000;stroke-width:0.1;stroke-linecap:round;stroke-linejoin:round;stroke-dasharray:none;paint-order:markers fill stroke"
     d="M 26.482422,20.128906 26.742187,19.164062 27,18.197266 c 0.07081,-0.266383 -0.08732,-0.539827 -0.353516,-0.611329 -0.266383,-0.07081 -0.539826,0.08732 -0.611328,0.353516 l -0.259765,0.964844 -0.257813,0.966797"
     id="path10159"
     sodipodi:nodetypes="ccccccc" />
  <path
     style="color:#000000;fill:#cccccc;stroke:#000000;stroke-width:0.1;stroke-linecap:round;stroke-linejoin:round;stroke-dasharray:none;paint-order:markers fill stroke"
     d="m 34,19.5 c -0.276131,2.8e-5 -0.499972,0.223869 -0.5,0.5 v 1 c 0,1.374788 1.125212,2.5 2.5,2.5 1.374789,0 2.5,-1.125212 2.5,-2.5 v -1 c -2.8e-5,-0.276131 -0.223869,-0.499972 -0.5,-0.5 z"
     id="path10185"
     sodipodi:nodetypes="ccsssccc" />
  <path
     style="color:#000000;fill:#cccccc;stroke-linecap:round;stroke-linejoin:round;paint-order:markers fill stroke;stroke:#000000;stroke-width:0.1;stroke-dasharray:none"
     d="M 35,17.5 A 0.5,0.5 0 0 0 34.5,18 v 2 A 0.5,0.5 0 0 0 35,20.5 0.5,0.5 0 0 0 35.5,20 V 18 A 0.5,0.5 0 0 0 35,17.5 Z"
     id="path10175" />
  <path
     style="color:#000000;fill:#cccccc;stroke-linecap:round;stroke-linejoin:round;paint-order:markers fill stroke;stroke:#000000;stroke-width:0.1;stroke-dasharray:none"
     d="M 36,17.5 A 0.5,0.5 0 0 0 35.5,18 v 2 A 0.5,0.5 0 0 0 36,20.5 0.5,0.5 0 0 0 36.5,20 V 18 A 0.5,0.5 0 0 0 36,17.5 Z"
     id="path10177" />
  <path
     style="color:#000000;fill:#cccccc;stroke-linecap:round;stroke-linejoin:round;paint-order:markers fill stroke;stroke:#000000;stroke-width:0.1;stroke-dasharray:none"
     d="M 37,17.5 A 0.5,0.5 0 0 0 36.5,18 v 2 A 0.5,0.5 0 0 0 37,20.5 0.5,0.5 0 0 0 37.5,20 V 18 A 0.5,0.5 0 0 0 37,17.5 Z"
     id="path10179" />
  <path
     style="color:#000000;fill:#cccccc;stroke-linecap:round;stroke-linejoin:round;paint-order:markers fill stroke;stroke:#000000;stroke-width:0.1;stroke-dasharray:none"
     d="M 34,18.5 A 0.5,0.5 0 0 0 33.5,19 v 1 A 0.5,0.5 0 0 0 34,20.5 0.5,0.5 0 0 0 34.5,20 V 19 A 0.5,0.5 0 0 0 34,18.5 Z"
     id="path10181" />
  <path
     style="color:#000000;fill:#cccccc;stroke:#000000;stroke-width:0.1;stroke-linecap:round;stroke-linejoin:round;stroke-dasharray:none;paint-order:markers fill stroke"
     d="m 38.5,21 v -2 c -2.8e-5,-0.276131 -0.223869,-0.499972 -0.5,-0.5 h -2 c -0.276142,0 -0.5,0.223858 -0.5,0.5 0,0.276142 0.223858,0.5 0.5,0.5 h 1.5 V 21"
     id="path10183"
     sodipodi:nodetypes="cccssscc" />
  <path
     style="color:#000000;fill:#cccccc;stroke:#000000;stroke-width:0.1;stroke-linecap:round;stroke-linejoin:round;stroke-dasharray:none;paint-order:markers fill stroke"
     d="m 16,19.5 c -0.276131,2.8e-5 -0.499972,0.223869 -0.5,0.5 v 1 c 0,1.374788 1.125212,2.5 2.5,2.5 1.374789,0 2.5,-1.125212 2.5,-2.5 v -1 c -2.8e-5,-0.276131 -0.223869,-0.499972 -0.5,-0.5 z"
     id="path10557"
     sodipodi:nodetypes="ccsssccc" />
  <path
     style="color:#000000;fill:#cccccc;stroke-linecap:round;stroke-linejoin:round;paint-order:markers fill stroke;stroke:#000000;stroke-width:0.1;stroke-dasharray:none"
     d="M 17,17.5 A 0.5,0.5 0 0 0 16.5,18 v 2 A 0.5,0.5 0 0 0 17,20.5 0.5,0.5 0 0 0 17.5,20 V 18 A 0.5,0.5 0 0 0 17,17.5 Z"
     id="path10547" />
  <path
     style="color:#000000;fill:#ffaaaa;stroke:#000000;stroke-width:0.1;stroke-linecap:round;stroke-linejoin:round;stroke-dasharray:none;paint-order:markers fill stroke"
     d="m 19.5,19.974611 -0.201172,-4 C 19.285139,15.699103 19.050917,15.48673 18.775391,15.5 c -0.276308,0.01367 -0.488997,0.249119 -0.47461,0.525391 l 0.199219,4"
     id="path10551"
     sodipodi:nodetypes="ccccc" />
  <path
     style="color:#000000;fill:#aaaaff;stroke:#000000;stroke-width:0.1;stroke-linecap:round;stroke-linejoin:round;stroke-dasharray:none;paint-order:markers fill stroke"
     d="m 18.499966,20.000004 v -1.951172 l 0.390625,-1.951172 c 0.05385,-0.270733 -0.121874,-0.53389 -0.392578,-0.58789 l 3.4e-5,-4e-6 c -0.270734,-0.05386 -0.533891,0.121873 -0.587891,0.392578 l -0.40039,2 c -0.0064,0.03215 -0.0097,0.06486 -0.0098,0.09766 v 2"
     id="path10549"
     sodipodi:nodetypes="ccccccccc" />
  <path
     style="color:#000000;fill:#cccccc;stroke-linecap:round;stroke-linejoin:round;paint-order:markers fill stroke;stroke:#000000;stroke-width:0.1;stroke-dasharray:none"
     d="M 16,18.5 A 0.5,0.5 0 0 0 15.5,19 v 1 A 0.5,0.5 0 0 0 16,20.5 0.5,0.5 0 0 0 16.5,20 V 19 A 0.5,0.5 0 0 0 16,18.5 Z"
     id="path10553" />
  <path
     style="color:#000000;fill:#eeaaff;stroke:#000000;stroke-width:0.1;stroke-linecap:round;stroke-linejoin:round;stroke-dasharray:none;paint-order:markers fill stroke"
     d="m 20.5,21 v -2 c -1.32e-4,-0.0773 -0.01818,-0.15351 -0.05273,-0.222656 l -1,-2 c -0.123117,-0.246848 -0.422888,-0.347355 -0.669922,-0.22461 h -4e-6 c -0.246848,0.123117 -0.347355,0.422888 -0.22461,0.669922 L 19.5,19.117187 V 21"
     id="path10555"
     sodipodi:nodetypes="ccccssccc" />
  <path
     style="color:#000000;fill:#cccccc;stroke:#000000;stroke-width:0.1;stroke-linecap:round;stroke-linejoin:round;stroke-dasharray:none;paint-order:markers fill stroke"
     d="m 28,19.5 c -0.276131,2.8e-5 -0.499972,0.223869 -0.5,0.5 v 1 c 0,1.374788 1.125212,2.5 2.5,2.5 1.374789,0 2.5,-1.125212 2.5,-2.5 v -1 c -2.8e-5,-0.276131 -0.223869,-0.499972 -0.5,-0.5 z"
     id="path10593"
     sodipodi:nodetypes="ccsssccc" />
  <path
     style="color:#000000;fill:#cccccc;stroke-linecap:round;stroke-linejoin:round;paint-order:markers fill stroke;stroke:#000000;stroke-width:0.1;stroke-dasharray:none"
     d="M 29,18.5 A 0.5,0.5 0 0 0 28.5,19 v 2 A 0.5,0.5 0 0 0 29,21.5 0.5,0.5 0 0 0 29.5,21 V 19 A 0.5,0.5 0 0 0 29,18.5 Z"
     id="path10583" />
  <path
     style="color:#000000;fill:#cccccc;stroke-linecap:round;stroke-linejoin:round;paint-order:markers fill stroke;stroke:#000000;stroke-width:0.1;stroke-dasharray:none"
     d="M 30,18.5 A 0.5,0.5 0 0 0 29.5,19 v 2 A 0.5,0.5 0 0 0 30,21.5 0.5,0.5 0 0 0 30.5,21 V 19 A 0.5,0.5 0 0 0 30,18.5 Z"
     id="path10585" />
  <path
     style="color:#000000;fill:#ffaaaa;stroke:#000000;stroke-width:0.1;stroke-linecap:round;stroke-linejoin:round;stroke-dasharray:none;paint-order:markers fill stroke"
     d="m 31.5,20 v -2 c 1.71e-4,-0.06352 -0.01176,-0.126493 -0.03516,-0.185547 l -0.400391,-1 c -0.05506,-0.137244 -0.168048,-0.243077 -0.308594,-0.289062 h 4e-6 c -0.140594,-0.04602 -0.29435,-0.02743 -0.419922,0.05078 l -0.800781,0.5 c -0.234165,0.146636 -0.305014,0.455398 -0.158203,0.689453 0.146561,0.232972 0.453852,0.303684 0.6875,0.158203 L 30.357422,17.740234 30.5,18.095703 V 20"
     id="path10587"
     sodipodi:nodetypes="ccccssccccccc" />
  <path
     style="color:#000000;fill:#cccccc;stroke-linecap:round;stroke-linejoin:round;paint-order:markers fill stroke;stroke:#000000;stroke-width:0.1;stroke-dasharray:none"
     d="M 28,19.5 A 0.5,0.5 0 0 0 27.5,20 v 1 A 0.5,0.5 0 0 0 28,21.5 0.5,0.5 0 0 0 28.5,21 V 20 A 0.5,0.5 0 0 0 28,19.5 Z"
     id="path10589" />
  <path
     style="color:#000000;fill:#cccccc;stroke:#000000;stroke-width:0.1;stroke-linecap:round;stroke-linejoin:round;stroke-dasharray:none;paint-order:markers fill stroke"
     d="m 32.5,21 v -2 c -2.8e-5,-0.276131 -0.223869,-0.499972 -0.5,-0.5 h -2 c -0.276142,0 -0.5,0.223858 -0.5,0.5 0,0.276142 0.223858,0.5 0.5,0.5 h 1.5 V 21"
     id="path10591"
     sodipodi:nodetypes="cccssscc" />
  <rect
     style="fill:#dde9af;stroke:none;stroke-width:0.1;stroke-linecap:round;stroke-linejoin:round;stroke-dasharray:none;paint-order:markers fill stroke"
     id="rect12125"
     width="33"
     height="21"
     x="7"
     y="29" />
  <path
     id="path12259"
     style="color:#000000;fill:#000000;stroke-width:0.4;stroke-linecap:round;stroke-linejoin:round;paint-order:markers fill stroke"
     d="M 30 30.300781 C 29.61577 30.300781 29.300781 30.61577 29.300781 31 L 29.300781 31.369141 C 29.209439 31.325134 29.107599 31.300781 29 31.300781 C 28.61577 31.300781 28.300781 31.61577 28.300781 32 L 28.300781 34.417969 L 27.900391 32.921875 C 27.801121 32.550769 27.413907 32.326798 27.042969 32.425781 C 26.671228 32.525221 26.446619 32.913639 26.546875 33.285156 L 27.300781 36.089844 L 27.300781 37 C 27.300781 38.483912 28.516087 39.699219 30 39.699219 C 31.483912 39.699219 32.699219 38.483912 32.699219 37 L 32.699219 36 L 32.699219 35 C 32.69918 34.615796 32.384204 34.30082 32 34.300781 L 31.699219 34.300781 L 31.699219 32 C 31.699219 31.61577 31.38423 31.300781 31 31.300781 C 30.892401 31.300781 30.790561 31.325134 30.699219 31.369141 L 30.699219 31 C 30.699219 30.61577 30.38423 30.300781 30 30.300781 z " />
  <path
     id="path12265"
     style="color:#000000;fill:#000000;stroke-width:0.4;stroke-linecap:round;stroke-linejoin:round;paint-order:markers fill stroke"
     d="M 13 31.300781 C 12.61577 31.300781 12.300781 31.61577 12.300781 32 L 12.300781 33.369141 C 12.209439 33.325134 12.107599 33.300781 12 33.300781 C 11.804956 33.300781 11.627215 33.38153 11.5 33.511719 C 11.372785 33.38153 11.195044 33.300781 11 33.300781 C 10.61577 33.300781 10.300781 33.61577 10.300781 34 L 10.300781 34.369141 C 10.209546 34.32526 10.107435 34.300781 10 34.300781 C 9.6157708 34.300781 9.3007812 34.61577 9.3007812 35 L 9.3007812 36 L 9.3007812 37 C 9.3007812 38.483912 10.516088 39.699219 12 39.699219 C 13.483913 39.699219 14.699219 38.483912 14.699219 37 L 14.699219 36 L 14.699219 35 C 14.69918 34.615796 14.384204 34.30082 14 34.300781 L 13.699219 34.300781 L 13.699219 32 C 13.699219 31.61577 13.38423 31.300781 13 31.300781 z " />
  <path
     id="path12271"
     style="color:#000000;fill:#000000;stroke-width:0.4;stroke-linecap:round;stroke-linejoin:round;paint-order:markers fill stroke"
     d="M 18 30.300781 C 17.61577 30.300781 17.300781 30.61577 17.300781 31 L 17.300781 33.369141 C 17.209439 33.325134 17.107599 33.300781 17 33.300781 C 16.61577 33.300781 16.300781 33.61577 16.300781 34 L 16.300781 34.369141 C 16.209546 34.32526 16.107435 34.300781 16 34.300781 C 15.975986 34.300781 15.953101 34.302287 15.929688 34.304688 C 15.6019 34.338299 15.338299 34.6019 15.304688 34.929688 C 15.302287 34.953101 15.300781 34.975986 15.300781 35 L 15.300781 36 C 15.300781 36.012007 15.300174 36.023292 15.300781 36.035156 L 15.300781 37 C 15.300781 38.483912 16.516087 39.699219 18 39.699219 C 19.483912 39.699219 20.699219 38.483912 20.699219 37 L 20.699219 36 L 20.699219 35 C 20.69918 34.615796 20.384204 34.30082 20 34.300781 L 19.699219 34.300781 L 19.699219 32 C 19.699219 31.61577 19.38423 31.300781 19 31.300781 C 18.892401 31.300781 18.790561 31.325134 18.699219 31.369141 L 18.699219 31 C 18.699219 30.61577 18.38423 30.300781 18 30.300781 z " />
  <path
     id="path12277"
     style="color:#000000;fill:#000000;stroke-width:0.4;stroke-linecap:round;stroke-linejoin:round;paint-order:markers fill stroke"
     d="M 24 30.300781 C 23.61577 30.300781 23.300781 30.61577 23.300781 31 L 23.300781 31.369141 C 23.209439 31.325134 23.107599 31.300781 23 31.300781 C 22.61577 31.300781 22.300781 31.61577 22.300781 32 L 22.300781 34.417969 L 21.900391 32.921875 C 21.801121 32.550769 21.413907 32.326798 21.042969 32.425781 C 20.671228 32.525221 20.446619 32.913639 20.546875 33.285156 L 21.300781 36.089844 L 21.300781 37 C 21.300781 38.483912 22.516087 39.699219 24 39.699219 C 25.483912 39.699219 26.699219 38.483912 26.699219 37 L 26.699219 36 L 26.699219 35 C 26.69918 34.615796 26.384204 34.30082 26 34.300781 L 25.699219 34.300781 L 25.699219 34 C 25.699219 33.61577 25.38423 33.300781 25 33.300781 C 24.892401 33.300781 24.790561 33.325134 24.699219 33.369141 L 24.699219 31 C 24.699219 30.61577 24.38423 30.300781 24 30.300781 z " />
  <path
     id="path12283"
     style="color:#000000;fill:#000000;stroke-width:0.4;stroke-linecap:round;stroke-linejoin:round;paint-order:markers fill stroke"
     d="M 36 30.300781 C 35.61577 30.300781 35.300781 30.61577 35.300781 31 L 35.300781 31.369141 C 35.209439 31.325134 35.107599 31.300781 35 31.300781 C 34.61577 31.300781 34.300781 31.61577 34.300781 32 L 34.300781 34.417969 L 33.900391 32.921875 C 33.801121 32.550769 33.413907 32.326798 33.042969 32.425781 C 32.671228 32.525221 32.446619 32.913639 32.546875 33.285156 L 33.300781 36.089844 L 33.300781 37 C 33.300781 38.483912 34.516087 39.699219 36 39.699219 C 37.483912 39.699219 38.699219 38.483912 38.699219 37 L 38.699219 36.091797 L 38.935547 35.216797 A 0.20002 0.20002 0 0 0 38.935547 35.214844 L 39.193359 34.248047 C 39.291889 33.877379 39.069622 33.49207 38.699219 33.392578 A 0.20002 0.20002 0 0 0 38.697266 33.392578 C 38.326599 33.294048 37.94129 33.516313 37.841797 33.886719 L 37.699219 34.416016 L 37.699219 32 C 37.699219 31.61577 37.38423 31.300781 37 31.300781 C 36.892401 31.300781 36.790561 31.325134 36.699219 31.369141 L 36.699219 31 C 36.699219 30.61577 36.38423 30.300781 36 30.300781 z " />
  <path
     id="path12289"
     style="color:#000000;fill:#000000;stroke-width:0.4;stroke-linecap:round;stroke-linejoin:round;paint-order:markers fill stroke"
     d="M 9.2519531 41.402344 C 9.1818313 41.399644 9.1110477 41.407641 9.0429688 41.425781 C 8.6712295 41.525221 8.4466199 41.913639 8.546875 42.285156 L 9.3007812 45.089844 L 9.3007812 46 C 9.3007812 47.483912 10.516087 48.699219 12 48.699219 C 13.483912 48.699219 14.699219 47.483912 14.699219 46 L 14.699219 45.091797 L 14.935547 44.216797 A 0.20002 0.20002 0 0 0 14.935547 44.214844 L 15.193359 43.248047 C 15.291889 42.877379 15.069623 42.49207 14.699219 42.392578 A 0.20002 0.20002 0 0 0 14.697266 42.392578 C 14.326598 42.294048 13.94129 42.516314 13.841797 42.886719 L 13.699219 43.416016 L 13.699219 43 C 13.699219 42.61577 13.38423 42.300781 13 42.300781 C 12.804956 42.300781 12.627215 42.38153 12.5 42.511719 C 12.372785 42.38153 12.195044 42.300781 12 42.300781 C 11.804956 42.300781 11.627215 42.38153 11.5 42.511719 C 11.372785 42.38153 11.195044 42.300781 11 42.300781 C 10.61577 42.300781 10.300781 42.61577 10.300781 43 L 10.300781 43.417969 L 9.9003906 41.921875 C 9.8197249 41.620345 9.5516063 41.413858 9.2519531 41.402344 z " />
  <path
     id="path12295"
     style="color:#000000;fill:#000000;stroke-width:0.4;stroke-linecap:round;stroke-linejoin:round;paint-order:markers fill stroke"
     d="M 25 40.300781 C 24.61577 40.300781 24.300781 40.61577 24.300781 41 L 24.300781 42.369141 C 24.209439 42.325134 24.107599 42.300781 24 42.300781 C 23.804347 42.300781 23.627305 42.382725 23.5 42.513672 C 23.372714 42.382876 23.195563 42.300781 23 42.300781 C 22.61577 42.300781 22.300781 42.61577 22.300781 43 L 22.300781 43.369141 C 22.209546 43.32526 22.107435 43.300781 22 43.300781 C 21.975986 43.300781 21.9531 43.302287 21.929688 43.304688 C 21.6019 43.338298 21.338298 43.6019 21.304688 43.929688 C 21.302287 43.9531 21.300781 43.975986 21.300781 44 L 21.300781 45 C 21.300781 45.012007 21.300174 45.023292 21.300781 45.035156 L 21.300781 46 C 21.300781 47.483911 22.516088 48.699219 24 48.699219 C 25.483911 48.699219 26.699219 47.483911 26.699219 46 L 26.699219 45.091797 L 26.935547 44.216797 A 0.20002 0.20002 0 0 0 26.935547 44.214844 L 27.193359 43.248047 C 27.291889 42.877379 27.069622 42.49207 26.699219 42.392578 A 0.20002 0.20002 0 0 0 26.697266 42.392578 C 26.326599 42.294048 25.94129 42.516313 25.841797 42.886719 L 25.699219 43.416016 L 25.699219 41 C 25.699219 40.61577 25.38423 40.300781 25 40.300781 z " />
  <path
     id="path12301"
     style="color:#000000;fill:#000000;stroke-width:0.4;stroke-linecap:round;stroke-linejoin:round;paint-order:markers fill stroke"
     d="M 35 42.300781 C 34.61577 42.300781 34.300781 42.61577 34.300781 43 L 34.300781 43.369141 C 34.209546 43.32526 34.107435 43.300781 34 43.300781 C 33.975986 43.300781 33.953101 43.302287 33.929688 43.304688 C 33.6019 43.338299 33.338299 43.6019 33.304688 43.929688 C 33.302287 43.953101 33.300781 43.975986 33.300781 44 L 33.300781 45 C 33.300781 45.012007 33.300174 45.023292 33.300781 45.035156 L 33.300781 46 C 33.300781 47.483912 34.516088 48.699219 36 48.699219 C 37.483913 48.699219 38.699219 47.483912 38.699219 46 L 38.699219 45 L 38.699219 44 C 38.69918 43.615796 38.384204 43.30082 38 43.300781 L 37.699219 43.300781 L 37.699219 43 C 37.699219 42.61577 37.38423 42.300781 37 42.300781 C 36.804956 42.300781 36.627215 42.38153 36.5 42.511719 C 36.372785 42.38153 36.195044 42.300781 36 42.300781 C 35.804956 42.300781 35.627215 42.38153 35.5 42.511719 C 35.372785 42.38153 35.195044 42.300781 35 42.300781 z " />
  <path
     id="path12307"
     style="color:#000000;fill:#000000;stroke-width:0.4;stroke-linecap:round;stroke-linejoin:round;paint-order:markers fill stroke"
     d="M 18.394531 40.300781 C 18.068562 40.302581 17.780505 40.534119 17.714844 40.863281 L 17.402344 42.427734 C 17.288441 42.347196 17.149135 42.300781 17 42.300781 C 16.61577 42.300781 16.300781 42.61577 16.300781 43 L 16.300781 43.369141 C 16.209546 43.32526 16.107435 43.300781 16 43.300781 C 15.975986 43.300781 15.953101 43.302287 15.929688 43.304688 C 15.6019 43.338299 15.338299 43.6019 15.304688 43.929688 C 15.302287 43.953101 15.300781 43.975986 15.300781 44 L 15.300781 45 C 15.300781 45.012007 15.300174 45.023292 15.300781 45.035156 L 15.300781 46 C 15.300781 47.483912 16.516088 48.699219 18 48.699219 C 19.483913 48.699219 20.699219 47.483912 20.699219 46 L 20.699219 45 L 20.699219 44 C 20.699034 43.891794 20.675323 43.784296 20.626953 43.6875 L 19.626953 41.6875 C 19.601863 41.6372 19.562204 41.60004 19.527344 41.558594 L 19.498047 40.964844 C 19.478987 40.581493 19.149005 40.282317 18.765625 40.300781 C 18.710705 40.303481 18.660611 40.321228 18.609375 40.335938 C 18.585425 40.328538 18.561469 40.319313 18.537109 40.314453 C 18.489759 40.305053 18.442959 40.300641 18.396484 40.300781 A 0.20002 0.20002 0 0 0 18.394531 40.300781 z " />
  <path
     id="path12313"
     style="color:#000000;fill:#000000;stroke-width:0.4;stroke-linecap:round;stroke-linejoin:round;paint-order:markers fill stroke"
     d="M 30.591797 41.300781 C 30.464323 41.302281 30.339267 41.338491 30.230469 41.40625 L 29.429688 41.90625 C 29.10387 42.11028 29.002758 42.545428 29.207031 42.871094 A 0.20002 0.20002 0 0 0 29.207031 42.873047 C 29.410973 43.197231 29.844796 43.296189 30.169922 43.09375 L 30.261719 43.037109 L 30.300781 43.134766 L 30.300781 43.300781 L 30 43.300781 C 29.95349 43.300781 29.9052 43.304683 29.857422 43.314453 C 29.858422 43.314244 29.85392 43.31406 29.84375 43.316406 A 0.20002 0.20002 0 0 0 29.822266 43.324219 C 29.814966 43.326819 29.806078 43.329231 29.798828 43.332031 C 29.768478 43.340831 29.738078 43.349874 29.705078 43.365234 C 29.701378 43.366834 29.697079 43.367441 29.693359 43.369141 A 0.20002 0.20002 0 0 0 29.685547 43.375 C 29.641057 43.39737 29.600017 43.423045 29.5625 43.453125 C 29.559109 43.455885 29.559304 43.455168 29.554688 43.458984 C 29.535182 43.475085 29.515781 43.491617 29.498047 43.509766 C 29.378834 43.388702 29.215053 43.311949 29.035156 43.302734 C 29.02413 43.301235 29.012092 43.300781 29 43.300781 C 28.61577 43.300781 28.300781 43.61577 28.300781 44 L 28.300781 44.300781 L 28 44.300781 C 27.92552 44.300788 27.856346 44.312311 27.792969 44.332031 C 27.777429 44.336431 27.761284 44.342196 27.746094 44.347656 A 0.20002 0.20002 0 0 0 27.740234 44.349609 C 27.704074 44.364019 27.679752 44.378199 27.664062 44.386719 C 27.651594 44.393419 27.639003 44.400813 27.626953 44.408203 A 0.20002 0.20002 0 0 0 27.625 44.410156 C 27.60813 44.420876 27.583786 44.434964 27.554688 44.458984 A 0.20002 0.20002 0 0 0 27.541016 44.470703 L 27.535156 44.476562 C 27.524066 44.486652 27.513699 44.498019 27.505859 44.505859 C 27.491939 44.519549 27.477574 44.532065 27.464844 44.546875 A 0.20002 0.20002 0 0 0 27.464844 44.548828 C 27.444074 44.573438 27.429682 44.594925 27.419922 44.609375 C 27.408652 44.626355 27.398412 44.644219 27.388672 44.662109 L 27.386719 44.664062 A 0.20002 0.20002 0 0 0 27.384766 44.666016 C 27.373696 44.686396 27.361299 44.710924 27.349609 44.740234 A 0.20002 0.20002 0 0 0 27.347656 44.746094 C 27.341556 44.763194 27.334868 44.781308 27.330078 44.798828 C 27.311338 44.860738 27.300791 44.927686 27.300781 45 L 27.300781 46 C 27.300781 47.483912 28.516088 48.699219 30 48.699219 C 31.483913 48.699219 32.699219 47.483912 32.699219 46 L 32.699219 45 L 32.699219 44 C 32.699452 43.615796 32.384204 43.30082 32 43.300781 L 31.699219 43.300781 L 31.699219 43 C 31.699458 42.91109 31.683151 42.82292 31.650391 42.740234 L 31.25 41.740234 C 31.17297 41.548216 31.014992 41.400273 30.818359 41.335938 C 30.745519 41.312098 30.669254 41.299861 30.591797 41.300781 z " />
  <path
     id="path12471"
     style="color:#000000;fill:#cccccc;stroke-width:0.2;stroke-linecap:round;stroke-linejoin:round;paint-order:markers fill stroke"
     d="m 31.960938,34.595703 c -0.672164,0.01018 -1.34528,-9.21e-4 -2.017617,0.0056 -0.318202,0.03185 -0.462796,0.482016 -0.220771,0.691783 0.207626,0.17004 0.491427,0.09125 0.739216,0.107305 H 31.5 c 0.186147,0.134515 0.089,0.465245 0.07031,0.669921 -0.16218,0.12035 -0.141269,-0.179392 -0.197104,-0.07031 h -0.773599 c -0.05336,0.249545 -0.232811,-0.09214 -0.199218,0 h -0.800782 c -0.05336,0.249545 -0.232811,-0.09214 -0.199218,0 h -0.800782 c -0.078,0.229261 -0.20869,-0.04359 -0.243063,-0.09456 -0.247755,0.06603 -0.49551,0.132052 -0.743265,0.198078 -0.01411,0.03341 -0.01774,0.332238 -0.01206,0.466328 -0.02006,0.519541 0.0063,1.062596 0.263389,1.528319 0.447941,0.883137 1.476292,1.431046 2.459706,1.282379 1.048395,-0.135752 1.952246,-1.032749 2.056128,-2.091226 0.04274,-0.494094 0.0093,-0.991085 0.02029,-1.486496 -0.0079,-0.30739 0.017,-0.618313 -0.01678,-0.923334 -0.05326,-0.178018 -0.241946,-0.291553 -0.423022,-0.283783 z"
     sodipodi:nodetypes="cccccccccccccccccccccc" />
  <path
     id="path12477"
     style="color:#000000;fill:#aaffcc;stroke-width:0.2;stroke-linecap:round;stroke-linejoin:round;paint-order:markers fill stroke"
     d="m 29,31.599609 c -0.222098,0 -0.400391,0.178293 -0.400391,0.400391 v 4 h 0.800782 v -4 c 0,-0.222098 -0.178293,-0.400391 -0.400391,-0.400391 z" />
  <path
     id="path12483"
     style="color:#000000;fill:#aaaaff;stroke-width:0.2;stroke-linecap:round;stroke-linejoin:round;paint-order:markers fill stroke"
     d="M 30 30.599609 C 29.777902 30.599609 29.599609 30.777902 29.599609 31 L 29.599609 34.554688 C 29.705953 34.45887 29.846206 34.400391 30 34.400391 L 30.400391 34.400391 L 30.400391 31 C 30.400391 30.777902 30.222098 30.599609 30 30.599609 z M 29.599609 35.445312 L 29.599609 36 L 30.400391 36 L 30.400391 35.599609 L 30 35.599609 C 29.846206 35.599609 29.705953 35.54113 29.599609 35.445312 z " />
  <path
     id="path12489"
     style="color:#000000;fill:#ffaaaa;stroke-width:0.2;stroke-linecap:round;stroke-linejoin:round;paint-order:markers fill stroke"
     d="M 31 31.599609 C 30.777902 31.599609 30.599609 31.777902 30.599609 32 L 30.599609 34.400391 L 31.400391 34.400391 L 31.400391 32 C 31.400391 31.777902 31.222098 31.599609 31 31.599609 z M 30.599609 35.599609 L 30.599609 36 L 31.400391 36 L 31.400391 35.599609 L 30.599609 35.599609 z " />
  <path
     id="path12495"
     style="color:#000000;fill:#dde9af;stroke-width:0.2;stroke-linecap:round;stroke-linejoin:round;paint-order:markers fill stroke"
     d="m 27.199219,32.701172 c -0.02668,0.0017 -0.05323,0.0064 -0.08008,0.01367 -0.214884,0.05748 -0.341153,0.277423 -0.283203,0.492187 l 0.777343,2.896485 0.773438,-0.207032 -0.775391,-2.898437 c -0.0503,-0.188031 -0.225351,-0.308592 -0.412109,-0.296875 z" />
  <path
     id="path12507"
     style="color:#000000;fill:#cccccc;stroke-width:0.2;stroke-linecap:round;stroke-linejoin:round;paint-order:markers fill stroke"
     d="m 11,33.599609 c -0.301171,-0.01237 -0.454738,0.322287 -0.40005,0.582613 0.0044,0.636161 -0.01203,1.27319 0.0079,1.908797 0.05761,0.348205 0.6138,0.424556 0.745931,0.08955 0.09677,-0.27182 0.02202,-0.56828 0.04629,-0.850549 -0.0085,-0.480866 0.01961,-0.965315 -0.01519,-1.443944 C 11.337012,33.720796 11.173269,33.595209 11,33.599609 Z m 1,0 c -0.274905,-0.01295 -0.451039,0.286767 -0.400391,0.53546 0,0.139873 0,0.279746 0,0.419619 0.196677,-0.245747 0.622758,-0.08203 0.798436,-0.197829 0.0083,-0.255034 0.0496,-0.611602 -0.244781,-0.726895 C 12.104838,33.609914 12.052445,33.5993 12,33.599609 Z m -2.0214844,1 c -0.2921119,0.0031 -0.4288678,0.32856 -0.378384,0.581246 0.00658,0.312802 -0.018857,0.628503 0.014579,0.939414 0.088947,0.347832 0.657554,0.377315 0.755159,0.02088 0.06878,-0.282372 0.0082,-0.57779 0.03177,-0.865678 0.0067,-0.22796 0.02303,-0.53126 -0.229931,-0.637246 -0.05982,-0.0287 -0.126859,-0.0428 -0.1931904,-0.03862 z m 2.0214844,0 c -0.326038,-0.01765 -0.528473,0.415021 -0.309274,0.655479 0.169278,0.209128 0.45341,0.12953 0.68615,0.145303 0.374374,0 0.748749,0 1.123124,0 0.156245,0.04429 0.08214,0.229219 0.09961,0.349968 0,0.416547 0,0.833094 0,1.249641 -0.131129,0.248048 -0.258215,-0.114401 -0.199218,-0.256466 0,-0.247845 0,-0.495689 0,-0.743534 -0.266927,0 -0.533855,0 -0.800782,0 0.0022,0.0064 -0.03762,0.35303 -0.175781,0.423824 -0.244948,0.269934 -0.737959,0.215961 -0.923828,-0.0957 -0.199015,0.342623 -0.759393,0.359495 -0.978516,0.0293 -0.205573,0.151019 -0.464998,0.341805 -0.7271492,0.203929 -0.119926,-0.102794 -0.2606843,-0.102781 -0.1953967,0.0919 -0.020397,0.526663 0.035192,1.074777 0.314661,1.534458 0.5078179,0.905847 1.6398909,1.408334 2.6502809,1.148006 1.028382,-0.24368 1.842301,-1.227765 1.833069,-2.293842 0.0063,-0.690541 0.0042,-1.389234 0.0014,-2.08297 -0.01662,-0.249291 -0.273672,-0.39364 -0.503898,-0.359295 -0.631492,0 -1.262983,0 -1.894475,0 z m -0.400391,0.845703 c 0.02771,0.274904 -0.07796,0.597528 0.106435,0.832032 0.234755,0.257214 0.709641,0.07516 0.693339,-0.278246 -0.01162,-0.18449 0.08623,-0.498953 -0.208394,-0.399041 -0.204677,0.0063 -0.436925,8.57e-4 -0.59138,-0.154745 z" />
  <path
     id="path12525"
     style="color:#000000;fill:#ffaaaa;stroke-width:0.2;stroke-linecap:round;stroke-linejoin:round;paint-order:markers fill stroke"
     d="m 13,31.599609 c -0.208217,0 -0.378036,0.156785 -0.398438,0.359375 -0.0014,0.01351 -0.002,0.02713 -0.002,0.04102 v 2.400391 h 0.800782 V 32 c 0,-0.222098 -0.178293,-0.400391 -0.400391,-0.400391 z m -0.400391,4 V 36 h 0.800782 v -0.400391 z"
     sodipodi:nodetypes="sssccssccccc" />
  <path
     id="path12543"
     style="color:#000000;fill:#cccccc;stroke-width:0.2;stroke-linecap:round;stroke-linejoin:round;paint-order:markers fill stroke"
     d="m 17,33.599609 c -0.257008,-0.0092 -0.438357,0.249611 -0.400391,0.490749 0.0017,0.651898 -0.0034,1.303985 0.0026,1.955765 0.01937,0.322957 0.465597,0.475517 0.681309,0.237362 0.1792,-0.184015 0.09871,-0.454057 0.116909,-0.683876 -0.0014,-0.546885 0.0027,-1.093907 -0.0021,-1.640706 C 17.382253,33.759364 17.200154,33.595257 17,33.599609 Z m -1.021484,1 c -0.249124,0.0041 -0.414357,0.257402 -0.378907,0.490749 0.005,0.329722 -0.01022,0.660968 0.0079,0.989712 0.04708,0.322844 0.508798,0.435081 0.701835,0.17513 0.14553,-0.187958 0.07379,-0.436251 0.09112,-0.655591 -0.0082,-0.239426 0.01861,-0.48237 -0.01792,-0.719033 -0.05058,-0.17253 -0.225129,-0.292109 -0.404027,-0.280967 z m 2.021484,0 c -0.326038,-0.01765 -0.528473,0.415021 -0.309274,0.655479 0.169167,0.209048 0.453143,0.129568 0.685765,0.145303 0.374503,0 0.749006,0 1.123509,0 0.156215,0.04425 0.08216,0.229107 0.09961,0.349814 -0.0175,0.120737 0.05717,0.30515 -0.09961,0.349404 -0.07546,-0.127651 -0.215605,-0.09924 -0.355623,-0.09961 -0.181589,0 -0.363179,0 -0.544768,0 -0.04884,0.204207 -0.169536,0.02098 -0.244397,0 -0.251868,0 -0.503735,0 -0.755603,0 0.01862,0.423098 -0.4824,0.737747 -0.855023,0.541773 -0.167539,-0.06276 -0.238713,-0.320821 -0.366082,-0.07854 -0.21756,0.187351 -0.569928,0.179481 -0.778895,-0.01792 0.0017,0.48175 -0.03318,0.979442 0.167191,1.432591 0.364433,0.959778 1.394115,1.609031 2.417187,1.515454 1.082399,-0.06623 2.039683,-0.955404 2.188615,-2.029068 0.0517,-0.4354 0.01819,-0.875463 0.02779,-1.313045 -0.005,-0.377261 0.01021,-0.755788 -0.0081,-1.132213 -0.03891,-0.230957 -0.281658,-0.34878 -0.497706,-0.319422 -0.631528,0 -1.263055,0 -1.894583,0 z" />
  <path
     id="path12555"
     style="color:#000000;fill:#aaaaff;stroke-width:0.2;stroke-linecap:round;stroke-linejoin:round;paint-order:markers fill stroke"
     d="M 18 30.599609 C 17.777902 30.599609 17.599609 30.777902 17.599609 31 L 17.599609 34.554688 C 17.705953 34.45887 17.846206 34.400391 18 34.400391 L 18.400391 34.400391 L 18.400391 31 C 18.400391 30.777902 18.222098 30.599609 18 30.599609 z M 17.599609 35.445312 L 17.599609 36 L 18.400391 36 L 18.400391 35.599609 L 18 35.599609 C 17.846206 35.599609 17.705953 35.54113 17.599609 35.445312 z " />
  <path
     id="path12561"
     style="color:#000000;fill:#ffaaaa;stroke-width:0.2;stroke-linecap:round;stroke-linejoin:round;paint-order:markers fill stroke"
     d="M 19 31.599609 C 18.777902 31.599609 18.599609 31.777902 18.599609 32 L 18.599609 34.400391 L 19.400391 34.400391 L 19.400391 32 C 19.400391 31.777902 19.222098 31.599609 19 31.599609 z M 18.599609 35.599609 L 18.599609 36 L 19.400391 36 L 19.400391 35.599609 L 18.599609 35.599609 z " />
  <path
     id="path12579"
     style="color:#000000;fill:#cccccc;stroke-width:0.2;stroke-linecap:round;stroke-linejoin:round;paint-order:markers fill stroke"
     d="m 25,33.599609 c -0.256703,-0.0091 -0.438813,0.249003 -0.400391,0.490235 v 0.310547 h 0.800782 c -0.0182,-0.229849 0.06204,-0.499452 -0.117188,-0.683594 C 25.209241,33.642099 25.104909,33.598981 25,33.599609 Z m 0.976562,0.996094 c -0.02739,-8.63e-4 -0.05503,2.37e-4 -0.08203,0.0039 H 24 c -0.326038,-0.01765 -0.527793,0.415793 -0.308594,0.65625 0.169166,0.209047 0.452927,0.128797 0.685547,0.144532 H 25.5 c 0.156215,0.04425 0.08216,0.228902 0.09961,0.349609 V 37 c -0.146768,0.255231 -0.236196,-0.08005 -0.199218,-0.226562 V 35.599609 H 24.599609 V 36 c -0.05695,0.03416 -0.132812,0 -0.199218,0 h -0.800782 c -0.102424,0.178116 -0.176119,0.06755 -0.199218,-0.06445 V 36 h -0.800782 c -0.108304,0.202087 -0.180665,0.03843 -0.216797,-0.101562 l -0.769531,0.205078 -0.0059,-0.02148 c 6.6e-4,0.03421 -9.79e-4,0.06774 -0.0078,0.09961 0.01475,0.549285 -0.06147,1.115922 0.146485,1.640625 0.340786,0.967339 1.352658,1.641669 2.376953,1.574218 1.063405,-0.03836 2.028631,-0.869804 2.228515,-1.914062 0.08338,-0.436822 0.03663,-0.884348 0.04883,-1.326172 -0.005,-0.412402 0.01056,-0.824764 -0.0078,-1.236328 -0.03405,-0.202086 -0.224285,-0.318177 -0.416016,-0.324219 z"
     sodipodi:nodetypes="ccccccscccccccccccccccccccccccccs" />
  <path
     id="path12585"
     style="color:#000000;fill:#aaffcc;stroke-width:0.2;stroke-linecap:round;stroke-linejoin:round;paint-order:markers fill stroke"
     d="m 23,31.599609 c -0.222098,0 -0.400391,0.178293 -0.400391,0.400391 v 4 h 0.800782 v -4 c 0,-0.222098 -0.178293,-0.400391 -0.400391,-0.400391 z" />
  <path
     id="path12591"
     style="color:#000000;fill:#aaaaff;stroke-width:0.2;stroke-linecap:round;stroke-linejoin:round;paint-order:markers fill stroke"
     d="M 24 30.599609 C 23.777902 30.599609 23.599609 30.777902 23.599609 31 L 23.599609 34.554688 C 23.705953 34.45887 23.846206 34.400391 24 34.400391 L 24.400391 34.400391 L 24.400391 31 C 24.400391 30.777902 24.222098 30.599609 24 30.599609 z M 23.599609 35.445312 L 23.599609 36 L 24.400391 36 L 24.400391 35.599609 L 24 35.599609 C 23.846206 35.599609 23.705953 35.54113 23.599609 35.445312 z " />
  <path
     id="path12603"
     style="color:#000000;fill:#dde9af;stroke-width:0.2;stroke-linecap:round;stroke-linejoin:round;paint-order:markers fill stroke"
     d="m 21.199219,32.701172 c -0.02668,0.0017 -0.05323,0.0064 -0.08008,0.01367 -0.214884,0.05748 -0.341153,0.277423 -0.283203,0.492187 l 0.777343,2.896485 0.773438,-0.207032 -0.775391,-2.898437 c -0.0503,-0.188031 -0.225351,-0.308592 -0.412109,-0.296875 z" />
  <path
     id="path12615"
     style="color:#000000;fill:#cccccc;stroke-width:0.2;stroke-linecap:round;stroke-linejoin:round;paint-order:markers fill stroke"
     d="m 37.642578,35.785156 c -0.03991,0.142681 -0.03333,0.12731 0,0 z M 34.375,35.851566 c 0.03652,0.0833 -0.111507,0.05929 -0.162526,0.09169 -0.191907,0.05452 -0.388929,0.09838 -0.577642,0.159559 -0.07607,0.150513 -0.01623,0.351258 -0.03523,0.520228 -0.01608,0.491347 0.01453,1.001876 0.25088,1.444391 0.424448,0.863174 1.398858,1.42256 2.360122,1.325494 1.028087,-0.08237 1.952612,-0.895026 2.140361,-1.913457 0.0843,-0.432036 0.04088,-0.874339 0.04596,-1.311264 0.04506,-0.112481 -0.101437,-0.06387 -0.184521,-0.11135 -0.199719,-0.05346 -0.399439,-0.106921 -0.599159,-0.160382 0.03644,0.197481 -0.184812,0.222619 -0.212888,0.103524 -0.266927,0 -0.533855,0 -0.800782,0 -0.05502,0.229813 -0.209109,-0.05314 -0.211246,0 -0.262918,0 -0.525836,0 -0.788754,0 -0.05502,0.229813 -0.209109,-0.05314 -0.211246,0 -0.262918,0 -0.525836,0 -0.788754,0 -0.08419,0.243118 -0.233291,-0.02019 -0.224576,-0.148434 z" />
  <path
     id="path12621"
     style="color:#000000;fill:#aaffcc;stroke-width:0.2;stroke-linecap:round;stroke-linejoin:round;paint-order:markers fill stroke"
     d="m 35,31.599609 c -0.222098,0 -0.400391,0.178293 -0.400391,0.400391 v 4 h 0.800782 v -4 c 0,-0.222098 -0.178293,-0.400391 -0.400391,-0.400391 z" />
  <path
     id="path12627"
     style="color:#000000;fill:#aaaaff;stroke-width:0.2;stroke-linecap:round;stroke-linejoin:round;paint-order:markers fill stroke"
     d="m 36,30.599609 c -0.222098,0 -0.400391,0.178293 -0.400391,0.400391 v 5 h 0.800782 v -5 c 0,-0.222098 -0.178293,-0.400391 -0.400391,-0.400391 z" />
  <path
     id="path12633"
     style="color:#000000;fill:#ffaaaa;stroke-width:0.2;stroke-linecap:round;stroke-linejoin:round;paint-order:markers fill stroke"
     d="m 37,31.599609 c -0.222098,0 -0.400391,0.178293 -0.400391,0.400391 v 4 h 0.800782 v -4 c 0,-0.222098 -0.178293,-0.400391 -0.400391,-0.400391 z" />
  <path
     id="path12639"
     style="color:#000000;fill:#dde9af;stroke-width:0.2;stroke-linecap:round;stroke-linejoin:round;paint-order:markers fill stroke"
     d="m 33.199219,32.701172 c -0.02668,0.0017 -0.05323,0.0064 -0.08008,0.01367 -0.214884,0.05748 -0.341153,0.277423 -0.283203,0.492187 l 0.777343,2.896485 0.773438,-0.207032 -0.775391,-2.898437 c -0.0503,-0.188031 -0.225351,-0.308592 -0.412109,-0.296875 z" />
  <path
     id="path12645"
     style="color:#000000;fill:#eeaaff;stroke-width:0.2;stroke-linecap:round;stroke-linejoin:round;paint-order:markers fill stroke"
     d="m 38.501953,33.667969 c -0.170644,0.0068 -0.324367,0.122926 -0.371094,0.296875 l -0.259765,0.964844 -0.257813,0.966796 0.773438,0.207032 0.259765,-0.964844 0.257813,-0.966797 c 0.05695,-0.214242 -0.06911,-0.432724 -0.283203,-0.490234 -0.04017,-0.01068 -0.07976,-0.01524 -0.119141,-0.01367 z" />
  <path
     id="path12651"
     style="color:#000000;fill:#cccccc;stroke-width:0.2;stroke-linecap:round;stroke-linejoin:round;paint-order:markers fill stroke"
     d="m 11,42.599609 c -0.300752,-0.01239 -0.454482,0.321571 -0.40023,0.581677 0.0056,0.638953 -0.01249,1.279253 0.0095,1.91735 0.0723,0.361685 0.652239,0.409395 0.76135,0.04655 0.06629,-0.292622 0.01069,-0.598591 0.02953,-0.896751 -0.0083,-0.453704 0.01942,-0.911053 -0.01536,-1.362484 C 11.336948,42.720578 11.173262,42.595348 11,42.599609 Z m 1,0 c -0.300869,-0.01238 -0.454529,0.321755 -0.400199,0.581917 0.0061,0.640674 -0.01437,1.28292 0.01008,1.922594 0.07622,0.358869 0.652364,0.401206 0.760763,0.04106 0.06629,-0.292622 0.01069,-0.598591 0.02953,-0.896751 -0.0083,-0.453705 0.01942,-0.911052 -0.01536,-1.362484 C 12.336952,42.720576 12.173261,42.595349 12,42.599609 Z m 1,0 c -0.300869,-0.01238 -0.454529,0.321755 -0.400199,0.581917 0.0061,0.640674 -0.01437,1.28292 0.01008,1.922594 0.07622,0.358869 0.652364,0.401206 0.760763,0.04106 0.06629,-0.292622 0.01069,-0.598591 0.02953,-0.896751 -0.0083,-0.453705 0.01942,-0.911052 -0.01536,-1.362484 C 13.336952,42.720576 13.173261,42.595349 13,42.599609 Z m -2.613281,2.296875 c -0.257813,0.06901 -0.5156252,0.138021 -0.7734378,0.207032 -0.00727,-0.03415 -0.021317,0.315035 -0.014088,0.429405 -0.013258,0.482491 -0.00376,0.98095 0.2016986,1.428413 0.3840865,0.914998 1.3806215,1.509305 2.3665785,1.435833 0.983166,-0.05401 1.865382,-0.785843 2.13773,-1.725904 0.14652,-0.471719 0.08022,-0.96894 0.09519,-1.454553 0.03716,-0.145439 -0.122766,-0.134046 -0.217506,-0.16775 -0.189884,-0.05083 -0.379768,-0.101655 -0.569652,-0.152483 -0.0031,0.242765 -0.08387,0.506975 -0.320078,0.621099 -0.235902,0.142278 -0.563072,0.09588 -0.73688,-0.122754 -0.179006,-0.05333 -0.314994,0.270968 -0.553081,0.20323 -0.197913,-1.29e-4 -0.399111,-0.09841 -0.503244,-0.269936 -0.218746,0.39012 -0.914281,0.347956 -1.03598,-0.09961 -0.03299,-0.108918 -0.04798,-0.222247 -0.07725,-0.332027 z"
     sodipodi:nodetypes="ccccccccccccccccccccccccccccccccccccccc" />
  <path
     id="path12675"
     style="color:#000000;fill:#dde9af;stroke-width:0.2;stroke-linecap:round;stroke-linejoin:round;paint-order:markers fill stroke"
     d="m 9.1992188,41.701172 c -0.02668,0.0017 -0.053233,0.0064 -0.080078,0.01367 -0.2148869,0.05748 -0.341157,0.277423 -0.2832031,0.492187 L 9.6132812,45.103516 10.386719,44.896484 9.6113281,41.998047 C 9.56103,41.810016 9.3859774,41.689455 9.1992188,41.701172 Z" />
  <path
     id="path12681"
     style="color:#000000;fill:#eeaaff;stroke-width:0.2;stroke-linecap:round;stroke-linejoin:round;paint-order:markers fill stroke"
     d="m 14.501953,42.667969 c -0.170644,0.0068 -0.324367,0.122926 -0.371094,0.296875 l -0.259765,0.964844 -0.257813,0.966796 0.773438,0.207032 0.259765,-0.964844 0.257813,-0.966797 c 0.05695,-0.21424 -0.06911,-0.432724 -0.283203,-0.490234 -0.04017,-0.01068 -0.07976,-0.01524 -0.119141,-0.01367 z" />
  <path
     id="path12687"
     style="color:#000000;fill:#cccccc;stroke-width:0.2;stroke-linecap:round;stroke-linejoin:round;paint-order:markers fill stroke"
     d="m 23,42.599609 c -0.257008,-0.0092 -0.438357,0.249097 -0.400391,0.490235 0.0017,0.651897 -0.004,1.305252 0.002,1.957031 0.01937,0.322957 0.465929,0.474483 0.681641,0.236328 0.1792,-0.184015 0.09899,-0.453775 0.117188,-0.683594 -0.0014,-0.546884 0.0028,-1.093826 -0.002,-1.640625 C 23.382364,42.759446 23.200154,42.595257 23,42.599609 Z m 1,0 c -0.257008,-0.0092 -0.438357,0.249097 -0.400391,0.490235 0.0017,0.651897 -0.004,1.305252 0.002,1.957031 0.01937,0.322957 0.465929,0.474483 0.681641,0.236328 0.1792,-0.184015 0.09899,-0.453775 0.117188,-0.683594 -0.0014,-0.546884 0.0028,-1.093826 -0.002,-1.640625 C 24.382364,42.759446 24.200154,42.595257 24,42.599609 Z m -2.021484,1 c -0.249124,0.0041 -0.414357,0.256888 -0.378907,0.490235 0.005,0.329721 -0.01031,0.66149 0.0078,0.990234 0.04708,0.322844 0.508135,0.435732 0.701172,0.175781 0.14553,-0.187957 0.07447,-0.43691 0.0918,-0.65625 -0.0082,-0.239425 0.01895,-0.482087 -0.01758,-0.71875 -0.05058,-0.172529 -0.225398,-0.292392 -0.404296,-0.28125 z M 25.599609,45 c -0.05695,0.03416 -0.132812,0 -0.199218,0 h -0.800782 v -0.03516 c -0.0066,0.170129 -0.03984,0.333283 -0.175781,0.458984 -0.250193,0.270633 -0.733676,0.216489 -0.923828,-0.0957 -0.205571,0.343745 -0.752593,0.360416 -0.978516,0.0293 -0.125634,0.07475 -0.388451,0.325858 -0.634765,0.232422 -0.165833,-0.01937 -0.337392,-0.250216 -0.28711,0.02148 -0.0076,0.446845 -0.0043,0.906073 0.189453,1.320313 0.384258,0.941576 1.413634,1.5642 2.425782,1.458984 1.081261,-0.08012 2.026836,-0.981225 2.162109,-2.056641 0.04305,-0.383846 0.01566,-0.770724 0.02344,-1.15625 0.0017,-0.0251 -0.0091,-0.04948 -0.01367,-0.07422 l -0.773438,-0.207032 c 0.06737,-0.28068 0.0011,-0.0083 -0.01367,0.103516 z"
     sodipodi:nodetypes="ccccccccccccccccccccccccccccccccccccc" />
  <path
     id="path12705"
     style="color:#000000;fill:#ffaaaa;stroke-width:0.2;stroke-linecap:round;stroke-linejoin:round;paint-order:markers fill stroke"
     d="m 25,40.599609 c -0.222098,0 -0.400391,0.178293 -0.400391,0.400391 v 4 h 0.800782 v -4 c 0,-0.222098 -0.178293,-0.400391 -0.400391,-0.400391 z" />
  <path
     id="path12717"
     style="color:#000000;fill:#eeaaff;stroke-width:0.2;stroke-linecap:round;stroke-linejoin:round;paint-order:markers fill stroke"
     d="m 26.501953,42.667969 c -0.170644,0.0068 -0.324367,0.122926 -0.371094,0.296875 l -0.259765,0.964844 -0.257813,0.966796 0.773438,0.207032 0.259765,-0.964844 0.257813,-0.966797 c 0.05695,-0.21424 -0.06911,-0.432724 -0.283203,-0.490234 -0.04017,-0.01068 -0.07976,-0.01524 -0.119141,-0.01367 z" />
  <path
     id="path12723"
     style="color:#000000;fill:#cccccc;stroke-width:0.2;stroke-linecap:round;stroke-linejoin:round;paint-order:markers fill stroke"
     d="m 35,42.599609 c -0.257008,-0.0092 -0.438357,0.24961 -0.400391,0.490748 0.0017,0.651898 -0.0034,1.303986 0.0026,1.955766 0.01923,0.315601 0.448691,0.471986 0.669151,0.248993 0.193055,-0.178172 0.111473,-0.455275 0.129071,-0.686705 -0.0014,-0.549819 0.0027,-1.099775 -0.0021,-1.649508 C 35.381817,42.758873 35.200692,42.59564 35,42.599609 Z m 1,0 c -0.257008,-0.0092 -0.438357,0.24961 -0.400391,0.490748 0,0.154777 0,0.309554 0,0.464331 0.217475,-0.209816 0.528687,-0.142903 0.800782,-0.154297 -0.0182,-0.229847 0.06232,-0.499732 -0.116909,-0.683873 C 36.209467,42.641817 36.105115,42.599006 36,42.599609 Z m 1,0 c -0.257008,-0.0092 -0.438357,0.24961 -0.400391,0.490748 0,0.103344 0,0.206689 0,0.310034 0.266927,0 0.533855,0 0.800782,0 -0.0182,-0.229847 0.06232,-0.499732 -0.116909,-0.683873 C 37.209467,42.641817 37.105115,42.599006 37,42.599609 Z m -3.021484,1 c -0.249123,0.0041 -0.414357,0.257401 -0.378907,0.490748 0.0046,0.329268 -0.0095,0.659666 0.0076,0.988183 0.04477,0.309712 0.479486,0.434509 0.683234,0.198048 0.170475,-0.185398 0.09187,-0.449836 0.109978,-0.676979 -0.0082,-0.239426 0.01861,-0.48237 -0.01792,-0.719033 -0.05058,-0.172503 -0.225082,-0.292085 -0.403957,-0.280967 z m 2.021484,0 c -0.326038,-0.01765 -0.528473,0.415021 -0.309274,0.655479 0.169166,0.209047 0.45314,0.129568 0.68576,0.145303 0.374504,0 0.749009,0 1.123514,0 0.156215,0.04425 0.08216,0.229105 0.09961,0.349812 0,0.416599 0,0.833198 0,1.249797 -0.146769,0.255231 -0.236196,-0.07938 -0.199218,-0.225891 0,-0.109599 0,-0.219198 0,-0.328797 C 37.14485,45.69303 36.684428,45.629717 36.5,45.328125 c -0.205571,0.343745 -0.753054,0.360999 -0.978977,0.02988 -0.119942,0.06498 -0.361589,0.31124 -0.598071,0.236617 -0.184507,0.01685 -0.348549,-0.217187 -0.443975,-0.236617 -0.194973,0.278455 -0.633378,0.324528 -0.879368,0.08731 0.0017,0.48175 -0.03318,0.979442 0.167191,1.432591 0.364433,0.959778 1.394115,1.609031 2.417187,1.515454 1.0824,-0.06623 2.039683,-0.955404 2.188615,-2.029068 0.0517,-0.435396 0.01819,-0.875455 0.02779,-1.313033 -0.005,-0.377265 0.01021,-0.755796 -0.0081,-1.132225 -0.03891,-0.230956 -0.281657,-0.34878 -0.497705,-0.319422 -0.631528,0 -1.263056,0 -1.894584,0 z m -0.400391,0.845703 c 0.0091,0.229069 -0.02163,0.462642 0.02229,0.68791 0.09134,0.310526 0.561693,0.360531 0.718202,0.07892 0.10218,-0.187339 0.0455,-0.408337 0.06029,-0.612538 -0.272362,-0.01234 -0.583061,0.05733 -0.800786,-0.154297 z m 1,0.154297 c 0.01798,0.228487 -0.06086,0.494533 0.1128,0.679812 0.204583,0.230301 0.632843,0.108035 0.679887,-0.198447 0.0164,-0.159583 0.0044,-0.320977 0.0081,-0.481362 -0.266927,-10e-7 -0.533855,-2e-6 -0.800782,-3e-6 z" />
  <path
     id="path12759"
     style="color:#000000;fill:#cccccc;stroke-width:0.2;stroke-linecap:round;stroke-linejoin:round;paint-order:markers fill stroke"
     d="m 17,42.599609 c -0.257008,-0.0092 -0.438357,0.249097 -0.400391,0.490235 0.0017,0.651897 -0.004,1.305252 0.002,1.957031 0.01937,0.322957 0.465929,0.474483 0.681641,0.236328 0.1792,-0.184015 0.09899,-0.453775 0.117188,-0.683594 -0.0014,-0.546884 0.0028,-1.093826 -0.002,-1.640625 C 17.382364,42.759446 17.200154,42.595257 17,42.599609 Z m -1.021484,1 c -0.249124,0.0041 -0.414357,0.256888 -0.378907,0.490235 0.005,0.329721 -0.01031,0.66149 0.0078,0.990234 0.04708,0.322844 0.508135,0.435732 0.701172,0.175781 0.14553,-0.187957 0.07447,-0.43691 0.0918,-0.65625 -0.0082,-0.239425 0.01895,-0.482087 -0.01758,-0.71875 -0.05058,-0.172529 -0.225399,-0.292392 -0.404296,-0.28125 z m 1.621093,1.365235 c -0.0066,0.170129 -0.03984,0.333283 -0.175781,0.458984 -0.250193,0.270633 -0.733676,0.216489 -0.923828,-0.0957 -0.184428,0.301592 -0.644849,0.364904 -0.900391,0.117187 0.0017,0.48175 -0.0324,0.978494 0.167969,1.431641 0.364433,0.959778 1.392945,1.609202 2.416016,1.515625 1.082399,-0.06623 2.040522,-0.953681 2.189453,-2.027344 0.01439,-0.121168 0.02144,-0.243498 0.02539,-0.365234 h -0.798829 c -0.14677,0.255232 -0.236195,-0.08006 -0.199218,-0.226562 -0.0014,-0.26453 0.0037,-0.528549 -0.002,-0.792969 l -0.798829,0.03906 v -0.0078 c -0.0055,0.0226 -0.01101,0.04615 -0.01563,0.06836 -0.104722,0.09022 -0.160453,0.01764 -0.183593,-0.08008 h -0.800782 z"
     sodipodi:nodetypes="ccccccccccccccccccccccccccccccc" />
  <path
     id="path12771"
     style="color:#000000;fill:#ffaaaa;stroke-width:0.2;stroke-linecap:round;stroke-linejoin:round;paint-order:markers fill stroke"
     d="M 18.78125 40.599609 C 18.767276 40.600301 18.753759 40.60345 18.740234 40.605469 C 18.911181 40.72648 19.031134 40.901757 18.988281 41.117188 L 18.931641 41.40625 C 19.031683 41.394954 19.130798 41.408518 19.222656 41.445312 L 19.199219 40.980469 C 19.188239 40.75945 19.002101 40.589909 18.78125 40.599609 z M 18.919922 41.609375 C 18.90957 41.611548 18.898949 41.614157 18.888672 41.617188 C 18.899017 41.61406 18.909524 41.611721 18.919922 41.609375 z M 19.138672 41.625 C 19.153882 41.63088 19.169139 41.63878 19.183594 41.646484 C 19.168924 41.638842 19.154136 41.630743 19.138672 41.625 z M 19.183594 41.646484 C 19.201097 41.655814 19.218245 41.665902 19.234375 41.677734 L 19.234375 41.675781 C 19.218235 41.663996 19.201172 41.655642 19.183594 41.646484 z M 18.673828 42.689453 L 18.599609 43.058594 L 18.599609 45 L 18.599609 45.003906 L 18.599609 45.019531 L 19.400391 44.980469 L 19.353516 44.046875 L 18.673828 42.689453 z " />
  <path
     id="path12795"
     style="color:#000000;fill:#cccccc;stroke-width:0.2;stroke-linecap:round;stroke-linejoin:round;paint-order:markers fill stroke"
     d="m 29,43.599609 c -0.25228,-0.009 -0.436498,0.243105 -0.400391,0.481863 0.0017,0.65486 -0.0034,1.309909 0.0026,1.964651 0.01924,0.305906 0.427143,0.46745 0.652915,0.263154 0.20398,-0.162556 0.131893,-0.43679 0.145303,-0.662319 -0.0014,-0.562668 0.0027,-1.125472 -0.0021,-1.688055 C 29.382253,43.759364 29.200154,43.595257 29,43.599609 Z m 1,0 c -0.309029,-0.01582 -0.516448,0.377307 -0.332266,0.624679 0.130052,0.212475 0.391956,0.17415 0.603839,0.176103 0.409476,0 0.818951,0 1.228427,0 0.150985,0.03646 0.08486,0.209157 0.09961,0.321426 0,0.426061 0,0.852122 0,1.278183 -0.110915,0.241826 -0.242589,-0.03405 -0.199218,-0.176523 0,-0.407956 0,-0.815912 0,-1.223868 -0.266927,0 -0.533855,0 -0.800782,0 -0.0043,0.497061 0.0088,0.994987 -0.0069,1.491482 -0.04538,0.381954 -0.505122,0.630536 -0.848091,0.450682 -0.153773,-0.03261 -0.230868,-0.327676 -0.338656,-0.102544 -0.253407,0.253103 -0.720264,0.194004 -0.90593,-0.111104 -0.173313,0.28097 -0.589885,0.360575 -0.851562,0.15625 0.198855,1.030233 1.14167,1.855658 2.190471,1.910631 0.936816,0.07553 1.87842,-0.466298 2.297861,-1.304639 0.216511,-0.404179 0.281633,-0.867934 0.263621,-1.321204 -0.0014,-0.603403 0.0027,-1.206942 -0.0021,-1.810259 -0.01609,-0.236109 -0.25599,-0.390807 -0.479803,-0.359295 -0.639509,0 -1.279019,0 -1.918528,0 z m -0.400391,0.845703 c 0.0017,0.533581 -0.0034,1.067349 0.0026,1.600811 0.01924,0.305906 0.427143,0.46745 0.652915,0.263154 0.20398,-0.162556 0.131893,-0.43679 0.145303,-0.662319 0,-0.349116 0,-0.698233 0,-1.047349 -0.272794,-0.01306 -0.582404,0.05964 -0.800782,-0.154297 z M 28,44.599609 c -0.252006,-0.0089 -0.436953,0.243017 -0.400438,0.481867 0.0045,0.332201 -0.0093,0.665519 0.0075,0.996969 0.04508,0.304632 0.469352,0.432531 0.676371,0.205045 0.173769,-0.173812 0.101457,-0.430891 0.116909,-0.650106 -0.0044,-0.238006 0.0094,-0.477161 -0.0081,-0.714347 C 28.358222,44.736501 28.18564,44.596168 28,44.599609 Z" />
  <path
     id="path12813"
     style="color:#000000;fill:#ffaaaa;stroke-width:0.2;stroke-linecap:round;stroke-linejoin:round;paint-order:markers fill stroke"
     d="M 30.595703 41.601562 C 30.523393 41.601967 30.451493 41.621036 30.388672 41.660156 L 29.587891 42.160156 C 29.399557 42.278095 29.342859 42.524641 29.460938 42.712891 C 29.578806 42.900251 29.82381 42.956845 30.011719 42.839844 L 30.304688 42.65625 A 0.10001 0.10001 0 0 1 30.451172 42.703125 L 30.59375 43.058594 A 0.10001 0.10001 0 0 1 30.597656 43.070312 A 0.10001 0.10001 0 0 1 30.597656 43.072266 A 0.10001 0.10001 0 0 1 30.597656 43.074219 A 0.10001 0.10001 0 0 1 30.599609 43.080078 A 0.10001 0.10001 0 0 1 30.599609 43.082031 A 0.10001 0.10001 0 0 1 30.599609 43.083984 A 0.10001 0.10001 0 0 1 30.599609 43.085938 A 0.10001 0.10001 0 0 1 30.599609 43.087891 A 0.10001 0.10001 0 0 1 30.599609 43.089844 A 0.10001 0.10001 0 0 1 30.599609 43.091797 A 0.10001 0.10001 0 0 1 30.599609 43.09375 A 0.10001 0.10001 0 0 1 30.599609 43.095703 L 30.599609 43.400391 L 31.400391 43.400391 L 31.400391 43 C 31.400521 42.94918 31.389814 42.898802 31.371094 42.851562 L 30.970703 41.851562 C 30.926633 41.741709 30.837111 41.657904 30.724609 41.621094 C 30.682409 41.607274 30.639089 41.601324 30.595703 41.601562 z M 30.599609 44.599609 L 30.599609 45 L 31.400391 45 L 31.400391 44.599609 L 30.599609 44.599609 z " />
  <path
     id="path12777"
     style="color:#000000;fill:#aaaaff;stroke-width:0.2;stroke-linecap:round;stroke-linejoin:round;paint-order:markers fill stroke"
     d="M 18.398438 40.599609 C 18.211866 40.600372 18.045814 40.731367 18.007812 40.921875 L 17.607422 42.921875 C 17.602322 42.947745 17.599709 42.9737 17.599609 43 L 17.599609 45 L 18.400391 45 L 18.400391 43.048828 A 0.10001 0.10001 0 0 1 18.402344 43.029297 L 18.529297 42.398438 L 18.462891 42.267578 C 18.319178 41.978347 18.432971 41.62545 18.714844 41.472656 L 18.792969 41.078125 C 18.836279 40.860377 18.696238 40.650852 18.478516 40.607422 C 18.451296 40.602022 18.425087 40.599509 18.398438 40.599609 z M 18.644531 41.818359 C 18.611008 41.88373 18.595368 41.956776 18.601562 42.03125 L 18.644531 41.818359 z " />
  <path
     id="path12789"
     style="color:#000000;fill:#eeaaff;stroke-width:0.2;stroke-linecap:round;stroke-linejoin:round;paint-order:markers fill stroke"
     d="m 19.013672,41.599609 c -0.06425,-0.0022 -0.129318,0.01212 -0.191406,0.04297 -0.198528,0.09902 -0.278408,0.336475 -0.179688,0.535156 l 0.947266,1.894532 a 0.10001,0.10001 0 0 1 0.0098,0.04492 V 46 h 0.800782 v -2 c -1.1e-4,-0.06185 -0.01533,-0.122414 -0.04297,-0.177734 l -1,-2 c -0.06808,-0.136488 -0.202394,-0.21781 -0.34375,-0.222657 z" />
</svg>
