<?xml version="1.0" encoding="UTF-8"?>
<svg version="1.1" viewBox="0 0 16 16" xmlns="http://www.w3.org/2000/svg"><rect width="16" height="16" fill="#e6e6e6"/><g fill="#333" stroke-linecap="round" stroke-linejoin="round"><path d="m4 0c-2.1973 0-4 1.8027-4 4v3a1 1 0 0 0 1 1 1 1 0 0 0 1-1v-3c0-1.1164 0.88359-2 2-2s2 0.88359 2 2v3a1 1 0 0 0 1 1 1 1 0 0 0 1-1v-3c0-2.1973-1.8027-4-4-4z" color="#000000"/><path d="m7 8a1 1 0 0 0-1 1v3.5859l-4.293-4.293a1.0001 1.0001 0 0 0-1.707 0.70703v6a1 1 0 0 0 1 1 1 1 0 0 0 1-1v-3.5859l4.293 4.293a1.0001 1.0001 0 0 0 1.707-0.70703v-6a1 1 0 0 0-1-1z" color="#000000"/><path d="m12.055 0.0019531c-0.78918-0.011318-1.5854 0.20954-2.2773 0.67187-1.5816 1.0568-2.2006 3.1001-1.4727 4.8574 0.72792 1.7574 2.611 2.7637 4.4766 2.3926 0.47366-0.094216 0.91476-0.27132 1.3086-0.51367 0.15689 0.34701 0.50457 0.58984 0.91016 0.58984 0.55228 0 1-0.44772 1-1v-3c-5.5e-5 -0.55226-0.44774-0.99994-1-1h-3c-0.55228 0-1 0.44772-1 1s0.44772 1 1 1h1.7344c-0.27899 0.48536-0.75813 0.84445-1.3438 0.96094-0.94184 0.18734-1.8708-0.30812-2.2383-1.1953-0.36749-0.88719-0.062125-1.8942 0.73633-2.4277 0.79845-0.53351 1.8464-0.43098 2.5254 0.24805 0.39051 0.39042 1.0236 0.39042 1.4141 0 0.39042-0.39051 0.39042-1.0236 0-1.4141-0.67251-0.67251-1.5387-1.0621-2.4355-1.1504-0.11211-0.011041-0.22515-0.017914-0.33789-0.019531z" color="#000000"/><path d="m12 8c-2.1973 0-4 1.8027-4 4 0 2.1973 1.8027 4 4 4 2.1973 0 4-1.8027 4-4 0-2.1973-1.8027-4-4-4zm0 2c1.1164 0 2 0.88359 2 2s-0.88359 2-2 2-2-0.88359-2-2 0.88359-2 2-2z" color="#000000" style="-inkscape-stroke:none"/></g></svg>
