<?xml version="1.0" encoding="UTF-8"?>
<svg version="1.1" viewBox="0 0 320 210" xmlns="http://www.w3.org/2000/svg">
 <path d="m50 23.008c-3.8423 0-6.9922 3.1499-6.9922 6.9922v13.691c-0.91342-0.44007-1.9318-0.6836-3.0078-0.6836-1.9504 0-3.7278 0.80749-5 2.1094-1.2722-1.3019-3.0496-2.1094-5-2.1094-3.8423 0-6.9922 3.1499-6.9922 6.9922v3.6914c-0.91235-0.43881-1.9335-0.6836-3.0078-0.6836-3.8423 0-6.9922 3.1499-6.9922 6.9922v20c0 14.839 12.153 26.992 26.992 26.992s26.992-12.153 26.992-26.992v-20c-3.88e-4 -3.842-3.1501-6.9918-6.9922-6.9922h-3.0078v-23.008c0-3.8423-3.1499-6.9922-6.9922-6.9922z" color="#000000" stroke-linecap="round" stroke-linejoin="round" stroke-width="4" style="paint-order:markers fill stroke"/>
 <path d="m30 45.996c-3.0117-0.12371-4.5474 3.2229-4.0005 5.8261 0.044 6.3616-0.1203 12.732 0.07899 19.088 0.5761 3.482 6.138 4.2456 7.4593 0.8955 0.9677-2.7182 0.2202-5.6828 0.4629-8.5055-0.085-4.8087 0.1961-9.6531-0.1519-14.439-0.47869-1.6528-2.1161-2.9087-3.8488-2.8647zm10 0c-2.749-0.12949-4.5104 2.8677-4.0039 5.3546v4.1962c1.9668-2.4575 6.2276-0.8203 7.9844-1.9783 0.08298-2.5503 0.496-6.116-2.4478-7.269-0.48426-0.2005-1.0082-0.30664-1.5326-0.30355zm-20.215 10c-2.9211 0.03093-4.2887 3.2856-3.7838 5.8125 0.0658 3.128-0.18857 6.285 0.14579 9.3941 0.88947 3.4783 6.5755 3.7731 7.5516 0.20882 0.6878-2.8237 0.082-5.7779 0.3177-8.6568 0.06701-2.2796 0.2303-5.3126-2.2993-6.3725-0.5982-0.287-1.2686-0.428-1.9319-0.3862zm20.215 0c-3.2604-0.1765-5.2847 4.1502-3.0927 6.5548 1.6928 2.0913 4.5341 1.2953 6.8615 1.453h11.231c1.5624 0.4429 0.8214 2.2922 0.9961 3.4997v12.496c-1.3113 2.4805-2.5822-1.144-1.9922-2.5647v-7.4353h-8.0078c0.02205 0.064-0.3762 3.5303-1.7578 4.2382-2.4495 2.6993-7.3796 2.1596-9.2383-0.957-1.9902 3.4262-7.5939 3.5949-9.7852 0.29301-2.0557 1.5102-4.65 3.4181-7.2715 2.0393-1.1993-1.0279-2.6068-1.0278-1.954 0.919-0.20397 5.2666 0.35192 10.748 3.1466 15.345 5.0782 9.0585 16.399 14.083 26.503 11.48 10.284-2.4368 18.423-12.278 18.331-22.938 0.063-6.9054 0.04198-13.892 0.01389-20.83-0.16619-2.4929-2.7367-3.9364-5.039-3.593h-18.945zm-4.0039 8.457c0.27712 2.749-0.7796 5.9753 1.0644 8.3203 2.3475 2.5721 7.0964 0.7516 6.9334-2.7825-0.11619-1.8449 0.8623-4.9895-2.0839-3.9904-2.0468 0.063-4.3693 0.0086-5.9138-1.5474z" fill="#ccc"/>
 <path d="m50 25.996c-2.0822 0-3.7804 1.5678-3.9844 3.5937-0.01389 0.1351-0.01992 0.2713-0.01992 0.4102v24.004h8.0078v-24.004c0-2.221-1.7829-4.0039-4.0039-4.0039zm-4.0039 40v4.0039h8.0078v-4.0039z" fill="#faa"/>
 <path d="m100 13.008c-3.8423 0-6.9922 3.1499-6.9922 6.9922v23.691c-0.91342-0.44007-1.9318-0.6836-3.0078-0.6836-3.8423 0-6.9922 3.1499-6.9922 6.9922v3.6914c-0.91235-0.43881-1.9335-0.6836-3.0078-0.6836-0.24014 0-0.46899 0.01486-0.70312 0.03911-3.2779 0.33607-5.9139 2.9721-6.25 6.25-0.02418 0.23413-0.03908 0.46298-0.03908 0.70312v10c0 0.12007-6e-3 0.23292 0 0.35157v9.6484c0 14.839 12.153 26.992 26.992 26.992s26.992-12.153 26.992-26.992v-20c-3.8e-4 -3.842-3.1501-6.9918-6.9922-6.9922h-3.0078v-23.008c0-3.8423-3.1499-6.9922-6.9922-6.9922-1.076 0-2.0944 0.24353-3.0078 0.6836v-3.6914c0-3.8423-3.1499-6.9922-6.9922-6.9922z"/>
 <path d="m90 45.996c-2.5701-0.09201-4.3836 2.4961-4.0039 4.9075 0.01706 6.519-0.03413 13.04 0.02596 19.558 0.19371 3.2296 4.656 4.7552 6.8131 2.3736 1.792-1.8402 0.9871-4.5406 1.1691-6.8388-0.01389-5.4688 0.02703-10.939-0.02098-16.407-0.16071-1.9954-1.9817-3.6365-3.9832-3.5929zm-10.215 10c-2.4912 0.041-4.1436 2.574-3.7891 4.9075 0.05 3.2972-0.10219 6.6097 0.07901 9.8971 0.4708 3.2284 5.088 4.3508 7.0184 1.7513 1.4553-1.8796 0.7379-4.3625 0.9112-6.5559-0.082-2.3943 0.1861-4.8237-0.1792-7.1903-0.5058-1.7253-2.2513-2.9211-4.0403-2.8097zm20.215 0c-3.2604-0.1765-5.2847 4.1502-3.0927 6.5548 1.6917 2.0905 4.5314 1.2957 6.8576 1.453h11.235c1.5622 0.4425 0.8216 2.2911 0.9961 3.4981-0.17501 1.2074 0.5717 3.0515-0.9961 3.494-0.7546-1.2765-2.156-0.9924-3.5562-0.9961h-5.4477c-0.4884 2.0421-1.6954 0.20981-2.444 0h-7.556c0.18621 4.231-4.824 7.3775-8.5502 5.4177-1.6754-0.6276-2.3871-3.2082-3.6608-0.7854-2.1756 1.8735-5.6993 1.7948-7.7889-0.1792 0.01706 4.8175-0.3318 9.7944 1.6719 14.326 3.6443 9.5978 13.941 16.09 24.172 15.155 10.824-0.6623 20.397-9.554 21.886-20.291 0.517-4.354 0.1819-8.7546 0.2779-13.13-0.05-3.7726 0.10208-7.5579-0.081-11.322-0.3891-2.3096-2.8166-3.4878-4.9771-3.1942h-18.946z" fill="#ccc"/>
 <path d="m100 15.996c-2.221 0-4.0039 1.7829-4.0039 4.0039v35.547c1.0634-0.95818 2.466-1.543 4.0039-1.543h4.0039v-34.004c0-2.221-1.7829-4.0039-4.0039-4.0039zm-4.0039 48.457v5.5469h8.0078v-4.0039h-4.0039c-1.5379 0-2.9405-0.58479-4.0039-1.543z" fill="#aaf"/>
 <path d="m110 25.996c-2.221 0-4.0039 1.7829-4.0039 4.0039v24.004h8.0078v-24.004c0-2.221-1.7829-4.0039-4.0039-4.0039zm-4.0039 40v4.0039h8.0078v-4.0039z" fill="#faa"/>
 <path d="m160 13.008c-3.8423 0-6.9922 3.1499-6.9922 6.9922v3.6914c-0.91342-0.44007-1.9318-0.6836-3.0078-0.6836-3.8423 0-6.9922 3.1499-6.9922 6.9922v24.18l-4.0039-14.961c-0.9927-3.7111-4.8648-5.9508-8.5742-4.9609-3.7174 0.9944-5.9635 4.8786-4.9609 8.5938l7.5391 28.047v9.1016c0 14.839 12.153 26.992 26.992 26.992s26.992-12.153 26.992-26.992v-20c-3.9e-4 -3.842-3.1502-6.9918-6.9922-6.9922h-3.0078v-3.0078c0-3.8423-3.1499-6.9922-6.9922-6.9922-1.076 0-2.0944 0.24352-3.0078 0.6836v-23.691c0-3.8423-3.1499-6.9922-6.9922-6.9922z"/>
 <path d="m170 45.996c-2.567-0.09099-4.3882 2.49-4.0039 4.9024v3.1055h8.0078c-0.18201-2.2985 0.62038-4.9945-1.1719-6.8359-0.73962-0.74698-1.783-1.1782-2.832-1.1719zm9.7656 9.9609c-0.27392-0.0086-0.5503 0.0024-0.82031 0.039h-18.945c-3.2604-0.1765-5.2779 4.1579-3.0859 6.5625 1.6917 2.0905 4.5293 1.288 6.8555 1.4453h11.23c1.5622 0.4425 0.82161 2.289 0.99612 3.4961v12.5c-1.4677 2.5523-2.362-0.8005-1.9922-2.2656v-11.738h-8.0078v4.0039c-0.56948 0.34158-1.3281 0-1.9922 0h-8.0078c-1.0242 1.7812-1.7612 0.6755-1.9922-0.6445v0.6445h-8.0078c-1.083 2.0209-1.8066 0.3843-2.168-1.0156l-7.6953 2.0508-0.059-0.21479c7e-3 0.34212-0.01 0.6774-0.078 0.9961 0.14748 5.4928-0.6147 11.159 1.4648 16.406 3.4079 9.6734 13.527 16.417 23.77 15.742 10.634-0.3836 20.286-8.698 22.285-19.141 0.8338-4.3682 0.36629-8.8435 0.4883-13.262-0.0501-4.124 0.10564-8.2476-0.078-12.363-0.34052-2.0209-2.2428-3.1818-4.1602-3.2422z" fill="#ccc"/>
 <path d="m150 25.996c-2.221 0-4.0039 1.7829-4.0039 4.0039v40h8.0078v-40c0-2.221-1.7829-4.0039-4.0039-4.0039z" fill="#afc"/>
 <path d="m160 15.996c-2.221 0-4.0039 1.7829-4.0039 4.0039v35.547c1.0634-0.95818 2.466-1.543 4.0039-1.543h4.0039v-34.004c0-2.221-1.7829-4.0039-4.0039-4.0039zm-4.0039 48.457v5.5469h8.0078v-4.0039h-4.0039c-1.5379 0-2.9405-0.58479-4.0039-1.543z" color="#000000" fill="#aaf" stroke-linecap="round" stroke-linejoin="round" stroke-width="2" style="paint-order:markers fill stroke"/>
 <path d="m131.99 37.012c-0.26681 0.01706-0.5323 0.064-0.8008 0.13671-2.1488 0.5748-3.4115 2.7742-2.832 4.9219l7.7734 28.965 7.7344-2.0703-7.7539-28.984c-0.503-1.8803-2.2535-3.0859-4.1211-2.9688z" color="#000000" fill="#dde9af" stroke-linecap="round" stroke-linejoin="round" stroke-width="2" style="paint-order:markers fill stroke"/>
 <path d="m220 13.008c-3.8423 0-6.9922 3.1499-6.9922 6.9922v3.6914c-0.91342-0.44007-1.9318-0.6836-3.0078-0.6836-3.8423 0-6.9922 3.1499-6.9922 6.9922v24.18l-4.0039-14.961c-0.99271-3.7111-4.8648-5.9508-8.5742-4.9609-3.7174 0.9944-5.9635 4.8786-4.961 8.5938l7.5391 28.047v9.1016c0 14.839 12.153 26.992 26.992 26.992s26.992-12.153 26.992-26.992v-20c-3.8e-4 -3.842-3.1502-6.9918-6.9922-6.9922h-3.0078v-23.008c0-3.8423-3.1499-6.9922-6.9922-6.9922-1.076 0-2.0944 0.24353-3.0078 0.6836v-3.6914c0-3.8423-3.1499-6.9922-6.9922-6.9922z"/>
 <path d="m239.61 55.957c-6.7216 0.1018-13.453-0.0092-20.176 0.05601-3.182 0.3185-4.628 4.8202-2.2077 6.9178 2.0763 1.7004 4.9143 0.9125 7.3922 1.0731h10.382c1.8615 1.3451 0.89 4.6524 0.7031 6.6992-1.6218 1.2035-1.4127-1.7939-1.971-0.7031h-7.736c-0.53359 2.4954-2.3281-0.9214-1.9922 0h-8.0078c-0.5336 2.4954-2.3281-0.9214-1.9922 0h-8.0078c-0.78001 2.2926-2.0869-0.4359-2.4306-0.9456-2.4776 0.6603-4.9551 1.3205-7.4326 1.9808-0.14103 0.33412-0.17739 3.3224-0.12067 4.6633-0.20062 5.1954 0.063 10.626 2.6339 15.283 4.4794 8.8314 14.763 14.31 24.597 12.824 10.484-1.3575 19.522-10.327 20.561-20.912 0.42739-4.9409 0.093-9.9108 0.20292-14.865-0.079-3.0739 0.16999-6.1831-0.16779-9.2333-0.53261-1.7802-2.4195-2.9155-4.2302-2.8378z" fill="#ccc"/>
 <path d="m210 25.996c-2.221 0-4.0039 1.7829-4.0039 4.0039v40h8.0078v-40c0-2.221-1.7829-4.0039-4.0039-4.0039z" fill="#afc"/>
 <path d="m220 15.996c-2.221 0-4.0039 1.7829-4.0039 4.0039v35.547c1.0635-0.95818 2.466-1.543 4.0039-1.543h4.0039v-34.004c0-2.221-1.7829-4.0039-4.0039-4.0039zm-4.0039 48.457v5.5469h8.0078v-4.0039h-4.0039c-1.538 0-2.9405-0.58479-4.0039-1.543z" fill="#aaf"/>
 <path d="m230 25.996c-2.221 0-4.0039 1.7829-4.0039 4.0039v24.004h8.0078v-24.004c0-2.221-1.7829-4.0039-4.0039-4.0039zm-4.0039 40v4.0039h8.0078v-4.0039z" fill="#faa"/>
 <path d="m191.99 37.012c-0.26681 0.01706-0.5323 0.064-0.80081 0.13671-2.1488 0.5748-3.4115 2.7742-2.832 4.9219l7.7734 28.965 7.7344-2.0703-7.7539-28.984c-0.503-1.8803-2.2535-3.0859-4.1211-2.9688z" fill="#dde9af"/>
 <path d="m280 13.008c-3.8423 0-6.9922 3.1499-6.9922 6.9922v3.6914c-0.91344-0.44007-1.9318-0.6836-3.0078-0.6836-3.8423 0-6.9922 3.1499-6.9922 6.9922v24.18l-4.0039-14.961c-0.99268-3.7111-4.8648-5.9508-8.5742-4.9609-3.7174 0.9944-5.9635 4.8786-4.9609 8.5938l7.539 28.047v9.1016c0 14.839 12.153 26.992 26.992 26.992s26.992-12.153 26.992-26.992v-9.082l2.3633-8.75a2.0002 2.0002 0 0 0 0-0.01956l2.5781-9.668c0.98528-3.7067-1.2374-7.5598-4.9414-8.5547a2.0002 2.0002 0 0 0-0.0199 0c-3.7062-0.9853-7.5593 1.2373-8.5542 4.9414l-1.4258 5.293v-24.16c0-3.8423-3.1499-6.9922-6.9922-6.9922-1.076 0-2.0944 0.24353-3.0078 0.6836v-3.6914c0-3.8423-3.1499-6.9922-6.9922-6.9922z"/>
 <path d="m296.43 67.852c-0.39909 1.4268-0.33328 1.2731 0 0zm-32.676 0.6641c0.36521 0.833-1.1151 0.5929-1.6252 0.9169-1.9191 0.5452-3.8893 0.9838-5.7764 1.5956-0.7607 1.5051-0.16231 3.5126-0.35228 5.2023-0.16089 4.9135 0.14522 10.019 2.5088 14.444 4.2445 8.6317 13.989 14.226 23.601 13.255 10.281-0.8237 19.526-8.9503 21.404-19.135 0.843-4.3204 0.4088-8.7434 0.45961-13.113 0.45059-1.1248-1.0144-0.6387-1.8452-1.1135l-5.9916-1.6038c0.3644 1.9748-1.8481 2.2262-2.1289 1.0352h-8.0078c-0.5502 2.2981-2.0911-0.5314-2.1125 0h-7.8875c-0.5502 2.2981-2.0911-0.5314-2.1124 0h-7.8875c-0.8419 2.4312-2.3329-0.20188-2.2458-1.4843z" fill="#ccc"/>
 <path d="m270 25.996c-2.221 0-4.0039 1.7829-4.0039 4.0039v40h8.0078v-40c0-2.221-1.7829-4.0039-4.0039-4.0039z" fill="#afc"/>
 <path d="m280 15.996c-2.221 0-4.0039 1.7829-4.0039 4.0039v50h8.0078v-50c0-2.221-1.7829-4.0039-4.0039-4.0039z" fill="#aaf"/>
 <path d="m290 25.996c-2.221 0-4.0039 1.7829-4.0039 4.0039v40h8.0078v-40c0-2.221-1.7829-4.0039-4.0039-4.0039z" fill="#faa"/>
 <path d="m251.99 37.012c-0.2668 0.01706-0.53228 0.064-0.80079 0.13671-2.1488 0.5748-3.4115 2.7742-2.832 4.9219l7.7734 28.965 7.7344-2.0703-7.7539-28.984c-0.50299-1.8803-2.2535-3.0859-4.1211-2.9688z" fill="#dde9af"/>
 <path d="m305.02 46.68c-1.7064 0.06802-3.2437 1.2293-3.7109 2.9688l-2.5976 9.6484-2.5781 9.668 7.7344 2.0703 2.5976-9.6484 2.5781-9.668c0.56951-2.1424-0.69109-4.3272-2.832-4.9023-0.40169-0.10681-0.79759-0.1524-1.1914-0.13671z" fill="#eaf"/>
 <path d="m12.52 124.02c-0.70122-0.027-1.4091 0.053-2.0898 0.23442-3.7174 0.99439-5.9635 4.8786-4.9609 8.5938l7.5391 28.047v9.1015c0 14.839 12.153 26.992 26.992 26.992s26.992-12.153 26.992-26.992v-9.082l2.3633-8.75a2.0002 2.0002 0 0 0 0-0.0199l2.5781-9.6675c0.9853-3.7067-1.2374-7.5598-4.9414-8.5547a2.0002 2.0002 0 0 0-0.01956 0c-3.7067-0.9853-7.5598 1.2374-8.5547 4.9414l-1.4258 5.293v-4.1602c0-3.8423-3.1499-6.9922-6.9922-6.9922-1.9504 0-3.7278 0.8075-5 2.1094-1.2721-1.3019-3.0496-2.1094-5-2.1094s-3.7279 0.8075-5 2.1094c-1.2721-1.3019-3.0496-2.1094-5-2.1094-3.8423 0-6.9922 3.1499-6.9922 6.9922v4.1797l-4.0038-14.961c-0.80666-3.0153-3.4878-5.0802-6.4844-5.1953z"/>
 <path d="m30 136c-3.0075-0.12392-4.5448 3.2157-4.0023 5.8168 0.05601 6.3895-0.1249 12.793 0.095 19.174 0.723 3.6169 6.5224 4.094 7.6135 0.4655 0.6629-2.9262 0.10691-5.9859 0.2953-8.9675-0.083-4.537 0.1942-9.1105-0.15361-13.625-0.47842-1.6537-2.1153-2.906-3.8479-2.8634zm10 0c-3.0087-0.1238-4.5453 3.2176-4.002 5.8192 0.06101 6.4067-0.14367 12.829 0.1008 19.226 0.7622 3.5887 6.5236 4.0121 7.6076 0.4106 0.6629-2.9262 0.10692-5.9859 0.29529-8.9675-0.08298-4.537 0.1942-9.1105-0.15361-13.625-0.47861-1.6537-2.1155-2.906-3.8481-2.8634zm10 0c-3.0087-0.1238-4.5453 3.2176-4.002 5.8192 0.06101 6.4067-0.14369 12.829 0.1008 19.226 0.7622 3.5887 6.5236 4.0121 7.6076 0.4106 0.6629-2.9262 0.10692-5.9859 0.29529-8.9675-0.08298-4.537 0.1942-9.1105-0.15361-13.625-0.47862-1.6537-2.1155-2.906-3.8481-2.8634zm-26.133 22.969c-2.5781 0.6901-5.1563 1.3802-7.7344 2.0703-0.0727-0.34151-0.21317 3.1504-0.14088 4.294-0.13258 4.8249-0.0376 9.8095 2.017 14.284 3.8409 9.15 13.806 15.093 23.666 14.358 9.8317-0.5401 18.654-7.8584 21.377-17.259 1.4652-4.7172 0.8022-9.6894 0.9519-14.546 0.3716-1.4544-1.2277-1.3405-2.1751-1.6775-1.8988-0.5083-3.7977-1.0166-5.6965-1.5248-0.03093 2.4276-0.8387 5.0698-3.2008 6.211-2.359 1.4228-5.6307 0.95879-7.3688-1.2275-1.7901-0.53331-3.1499 2.7097-5.5308 2.0323-1.9791-1e-3 -3.9911-0.98411-5.0324-2.6994-2.1875 3.9012-9.1428 3.4796-10.36-0.99609-0.3299-1.0892-0.4798-2.2225-0.7725-3.3203z" fill="#ccc"/>
 <path d="m11.992 127.01c-0.2668 0.0171-0.53233 0.064-0.80078 0.13671-2.1489 0.5748-3.4116 2.7742-2.832 4.9219l7.7734 28.965 7.7344-2.0703-7.7539-28.984c-0.50298-1.8803-2.2535-3.0859-4.1211-2.9688z" fill="#dde9af"/>
 <path d="m65.02 136.68c-1.7064 0.068-3.2437 1.2293-3.7109 2.9688l-2.5976 9.6484-2.5781 9.668 7.7344 2.0703 2.5976-9.6484 2.5781-9.668c0.5695-2.1424-0.6911-4.3272-2.832-4.9023-0.4017-0.10681-0.7976-0.1524-1.1914-0.13671z" fill="#eaf"/>
 <path d="m103.95 113.01c-3.2597 0.0181-6.1403 2.3334-6.7969 5.625l-3.125 15.645c-1.139-0.80538-2.5321-1.2695-4.0234-1.2695-3.8423 0-6.9922 3.1499-6.9922 6.9922v3.6914c-0.91235-0.43881-1.9335-0.6836-3.0078-0.6836-0.24014 0-0.46899 0.0149-0.70312 0.039-3.2779 0.33611-5.9139 2.9721-6.25 6.25-0.02418 0.2341-0.03911 0.463-0.03911 0.7031v10c0 0.12011-6e-3 0.23289 0 0.35161v9.6485c0 14.839 12.153 26.992 26.992 26.992s26.992-12.153 26.992-26.992v-20c-2e-3 -1.0821-0.239-2.157-0.7227-3.125l-10-20c-0.25091-0.503-0.6475-0.8746-0.9961-1.2891l-0.29302-5.9375c-0.19061-3.8335-3.4904-6.8253-7.3242-6.6406-0.54919 0.027-1.0501 0.20452-1.5625 0.35161-0.2395-0.074-0.4791-0.16629-0.7227-0.2149-0.4735-0.094-0.94149-0.1381-1.4062-0.13671a2.0002 2.0002 0 0 0-0.0199 0z"/>
 <path d="m90 136c-2.5701-0.092-4.3836 2.491-4.0039 4.9024 0.01706 6.519-0.04 13.053 0.01992 19.57 0.19371 3.2296 4.6593 4.7448 6.8164 2.3633 1.792-1.8402 0.9899-4.5378 1.1719-6.8359-0.01389-5.4688 0.02809-10.938-0.01992-16.406-0.16075-1.9954-1.9828-3.6373-3.9844-3.5938zm-10.215 10c-2.4912 0.041-4.1436 2.5689-3.7891 4.9024 0.05 3.2972-0.10311 6.6149 0.07801 9.9023 0.4708 3.2284 5.0813 4.3573 7.0117 1.7578 1.4553-1.8796 0.7447-4.3691 0.918-6.5625-0.082-2.3942 0.18951-4.8209-0.17579-7.1875-0.5058-1.7253-2.254-2.9239-4.043-2.8125zm16.211 13.652c-0.06599 1.7013-0.3984 3.3328-1.7578 4.5898-2.5019 2.7063-7.3368 2.1649-9.2383-0.95701-1.8443 3.0159-6.4485 3.649-9.0039 1.1719 0.01706 4.8175-0.32398 9.785 1.6797 14.316 3.6443 9.5978 13.929 16.092 24.16 15.156 10.824-0.66229 20.405-9.5368 21.895-20.273 0.1439-1.2117 0.2144-2.435 0.2539-3.6524h-7.9883c-1.4677 2.5523-2.362-0.8006-1.9922-2.2656-0.0139-2.6453 0.037-5.2855-0.0199-7.9297l-7.9883 0.3906v-0.078c-0.055 0.22599-0.11009 0.4615-0.15631 0.68361-1.0472 0.9022-1.6045 0.17639-1.8359-0.80081h-8.0078z" fill="#ccc"/>
 <path d="m107.81 116c-0.1397 7e-3 -0.27491 0.038-0.4102 0.059 1.7095 1.2101 2.909 2.9629 2.4805 5.1172l-0.5664 2.8906c1.0004-0.113 1.9916 0.0231 2.9102 0.39059l-0.23442-4.6484c-0.10979-2.2102-1.9712-3.9056-4.1797-3.8086zm1.3867 10.098c-0.1035 0.022-0.2097 0.048-0.3125 0.078 0.1035-0.0309 0.2085-0.055 0.3125-0.078zm2.1875 0.1563c0.1521 0.059 0.30471 0.13781 0.4492 0.21479-0.14671-0.076-0.29462-0.1574-0.4492-0.21479zm0.4492 0.21479c0.175 0.093 0.34649 0.19421 0.5078 0.3125v-0.0199c-0.16139-0.1179-0.33202-0.20138-0.5078-0.29301zm-5.0977 10.43-0.7422 3.6914v19.609l8.0078-0.3906-0.4687-9.3359z" fill="#faa"/>
 <path d="m103.98 116c-1.8657 7e-3 -3.5262 1.3176-3.9063 3.2227l-4.0039 20c-0.05098 0.2587-0.077 0.5182-0.07801 0.7813v20h8.0078v-19.512a1.0001 1.0001 0 0 1 0.0199-0.19531l1.2695-6.3086-0.6641-1.3086c-1.4371-2.8923-0.2992-6.4213 2.5195-7.9492l0.7813-3.9453c0.4331-2.1775-0.9673-4.2727-3.1445-4.707-0.27221-0.054-0.5343-0.079-0.8008-0.078zm2.4609 12.188c-0.33518 0.6537-0.4916 1.3842-0.4297 2.1289z" fill="#aaf"/>
 <path d="m110.14 126c-0.6425-0.022-1.2932 0.1212-1.9141 0.4297-1.9853 0.9902-2.7841 3.3648-1.7969 5.3516l9.4727 18.945a1.0001 1.0001 0 0 1 0.098 0.4492v18.828h8.0078v-20c-1e-3 -0.6185-0.15332-1.2241-0.4297-1.7773l-10-20c-0.68079-1.3649-2.0239-2.1781-3.4375-2.2266z" fill="#eaf"/>
 <path d="m170 113.01c-3.8423 0-6.9922 3.1499-6.9922 6.9922v13.691c-0.91342-0.44007-1.9318-0.6836-3.0078-0.6836-1.9565 0-3.727 0.8194-5 2.1289-1.2729-1.308-3.0444-2.1289-5-2.1289-3.8423 0-6.9922 3.1499-6.9922 6.9922v3.6914c-0.91235-0.43881-1.9335-0.6836-3.0078-0.6836-0.24011 0-0.469 0.0149-0.7031 0.039-3.2779 0.33611-5.9139 2.9721-6.25 6.25-0.0238 0.2341-0.039 0.463-0.039 0.7031v10c0 0.12011-6e-3 0.23289 0 0.35161v9.6485c0 14.839 12.153 26.992 26.992 26.992s26.992-12.153 26.992-26.992v-9.082l2.3633-8.75a2.0002 2.0002 0 0 0 0-0.0199l2.5781-9.6681c0.98529-3.7067-1.2374-7.5598-4.9414-8.5547a2.0002 2.0002 0 0 0-0.0199 0c-3.7067-0.98529-7.5598 1.2374-8.5547 4.9414l-1.4258 5.293v-24.16c0-3.8423-3.1499-6.9922-6.9922-6.9922z"/>
 <path d="m150 136c-2.5701-0.092-4.3836 2.491-4.0039 4.9024 0.0171 6.519-0.04 13.053 0.0199 19.57 0.1937 3.2296 4.6593 4.7448 6.8164 2.3633 1.792-1.8402 0.9899-4.5378 1.1719-6.8359-0.0139-5.4688 0.0281-10.938-0.0199-16.406-0.16073-1.9954-1.9828-3.6373-3.9844-3.5938zm10 0c-2.5701-0.092-4.3836 2.491-4.0039 4.9024 0.0171 6.519-0.04 13.053 0.0199 19.57 0.1937 3.2296 4.6593 4.7448 6.8164 2.3633 1.792-1.8402 0.98989-4.5378 1.1719-6.8359-0.0145-5.4688 0.0281-10.938-0.0199-16.406-0.16073-1.9954-1.9828-3.6373-3.9844-3.5938zm-20.215 10c-2.4912 0.041-4.1436 2.5689-3.7891 4.9024 0.05 3.2972-0.10311 6.6149 0.078 9.9023 0.47079 3.2284 5.0813 4.3573 7.0117 1.7578 1.4553-1.8796 0.74471-4.3691 0.91801-6.5625-0.082-2.3942 0.18951-4.8209-0.17579-7.1875-0.50582-1.7253-2.254-2.9239-4.043-2.8125zm36.211 14.004c-0.5695 0.34158-1.3281 0-1.9922 0h-8.0078v-0.35161c-0.0659 1.7013-0.39838 3.3328-1.7578 4.5898-2.5019 2.7063-7.3368 2.1649-9.2383-0.95698-2.0557 3.4374-7.5259 3.6041-9.7852 0.29301-1.2563 0.74749-3.8845 3.2586-6.3476 2.3242-1.6583-0.19371-3.3739-2.5022-2.8711 0.21479-0.076 4.4684-0.043 9.0607 1.8945 13.203 3.8426 9.4158 14.136 15.642 24.258 14.59 10.813-0.8012 20.268-9.8122 21.621-20.566 0.4305-3.8385 0.15653-7.7072 0.23442-11.563 0.0171-0.25098-0.0909-0.49479-0.13666-0.7422l-7.7344-2.0703c0.6737-2.8068 0.0113-0.083-0.13666 1.0352z" fill="#ccc"/>
 <path d="m170 116c-2.221 0-4.0039 1.7829-4.0039 4.0039v40h8.0078v-40c0-2.221-1.7829-4.0039-4.0039-4.0039z" fill="#faa"/>
 <path d="m185.02 136.68c-1.7064 0.068-3.2437 1.2293-3.7109 2.9688l-2.5976 9.6484-2.5781 9.668 7.7344 2.0703 2.5976-9.6484 2.5781-9.668c0.5695-2.1424-0.69109-4.3272-2.832-4.9023-0.4017-0.10681-0.79759-0.1524-1.1914-0.13671z" fill="#eaf"/>
 <path d="m225.92 123.01c-1.2747 0.0149-2.5253 0.3771-3.6133 1.0547l-8.0078 5c-3.2582 2.0403-4.2693 6.3918-2.2266 9.6484a2.0002 2.0002 0 0 0 0 0.0199c2.0394 3.2418 6.3776 4.2314 9.6289 2.207l0.91799-0.5664 0.3906 0.9766v1.6602h-3.0078c-0.46511 0-0.94801 0.039-1.4258 0.13671 0.01-2e-3 -0.0349-4e-3 -0.13666 0.0199a2.0002 2.0002 0 0 0-0.2148 0.078c-0.073 0.026-0.16188 0.05-0.23441 0.078-0.30351 0.088-0.6075 0.17842-0.9375 0.33202-0.037 0.016-0.08 0.0221-0.11728 0.039a2.0002 2.0002 0 0 0-0.078 0.059c-0.4449 0.22372-0.8553 0.4805-1.2305 0.7813-0.0341 0.0281-0.032 0.0199-0.078 0.059-0.19509 0.16099-0.38909 0.32629-0.5664 0.5078-1.1921-1.2106-2.8299-1.9782-4.6289-2.0703-0.11033-0.0149-0.23061-0.0199-0.35162-0.0199-3.8423 0-6.9922 3.1499-6.9922 6.9922v3.0078h-3.008c-0.74479 7e-5 -1.4365 0.1153-2.0703 0.3125-0.1554 0.044-0.31679 0.10157-0.4687 0.1563a2.0002 2.0002 0 0 0-0.059 0.0199c-0.3616 0.14411-0.6048 0.2859-0.7617 0.3711-0.12471 0.067-0.25059 0.14091-0.3711 0.21479a2.0002 2.0002 0 0 0-0.0199 0.0199c-0.16871 0.10719-0.4121 0.2481-0.70311 0.4883a2.0002 2.0002 0 0 0-0.13666 0.1172l-0.059 0.059c-0.11082 0.10091-0.21462 0.21461-0.29302 0.29301-0.13925 0.13689-0.28292 0.26212-0.41021 0.4102a2.0002 2.0002 0 0 0 0 0.0199c-0.20771 0.24612-0.3516 0.461-0.44919 0.6055-0.11275 0.16981-0.2151 0.34841-0.3125 0.5273l-0.0199 0.0199a2.0002 2.0002 0 0 0-0.0199 0.0199c-0.11066 0.2038-0.23472 0.44909-0.35163 0.7422a2.0002 2.0002 0 0 0-0.0199 0.059c-0.0611 0.17099-0.12794 0.35211-0.17579 0.5273-0.18742 0.6191-0.29292 1.2886-0.29302 2.0117v10c0 14.839 12.153 26.992 26.992 26.992s26.992-12.153 26.992-26.992v-20.004c5e-3 -3.842-3.1478-6.9918-6.9898-6.9922h-3.0078v-3.0078c2e-3 -0.8891-0.16073-1.7708-0.4883-2.5977l-4.0039-10c-0.77029-1.9202-2.3501-3.3996-4.3164-4.043-0.72841-0.2384-1.4911-0.3608-2.2656-0.35161z"/>
 <path d="m210 146c-2.5228-0.09-4.365 2.431-4.0039 4.8186 0.0171 6.5486-0.0341 13.099 0.026 19.647 0.19239 3.0591 4.2714 4.6745 6.5291 2.6315 2.0398-1.6256 1.3189-4.3679 1.453-6.6232-0.0145-5.6267 0.027-11.255-0.021-16.881-0.16075-1.9954-1.9817-3.6365-3.9833-3.5929zm10 0c-3.0903-0.15818-5.1645 3.7731-3.3227 6.2468 1.3005 2.1248 3.9196 1.7415 6.0384 1.761h12.284c1.5098 0.3646 0.84859 2.0916 0.99609 3.2143v12.782c-1.1091 2.4182-2.4259-0.34053-1.9922-1.7652v-12.239h-8.0078c-0.043 4.9706 0.088 9.9499-0.069 14.915-0.4538 3.8195-5.0512 6.3054-8.4809 4.5068-1.5377-0.32611-2.3087-3.2768-3.3866-1.0254-2.5341 2.531-7.2026 1.94-9.0593-1.111-1.7331 2.8097-5.8988 3.6058-8.5156 1.5625 1.9886 10.302 11.417 18.557 21.905 19.106 9.3682 0.7553 18.784-4.663 22.979-13.046 2.1651-4.0418 2.8163-8.6794 2.6362-13.212-0.0145-6.034 0.027-12.069-0.021-18.103-0.1609-2.3611-2.5599-3.9081-4.798-3.593h-19.185zm-4.0039 8.457c0.0171 5.3358-0.0341 10.673 0.026 16.008 0.19239 3.0591 4.2714 4.6745 6.5292 2.6315 2.0398-1.6256 1.3189-4.3679 1.453-6.6232v-10.473c-2.7279-0.13059-5.824 0.5964-8.0078-1.543zm-15.996 1.543c-2.52-0.089-4.3695 2.4302-4.0044 4.8187 0.0451 3.322-0.0931 6.6552 0.075 9.9697 0.45081 3.0463 4.6935 4.3253 6.7637 2.0504 1.7377-1.7381 1.0146-4.3089 1.1691-6.501-0.0439-2.3801 0.094-4.7716-0.0809-7.1435-0.34019-1.8254-2.066-3.2287-3.9224-3.1943z" fill="#ccc"/>
 <path d="m225.96 126.02c-0.7231 4e-3 -1.4421 0.1947-2.0703 0.5859l-8.0078 5c-1.8833 1.1794-2.4503 3.6448-1.2695 5.5274 1.1787 1.8736 3.6287 2.4395 5.5078 1.2695l2.9297-1.8359a1.0001 1.0001 0 0 1 1.4648 0.4687l1.4258 3.5547a1.0001 1.0001 0 0 1 0.0389 0.11719 1.0001 1.0001 0 0 1 0 0.0199 1.0001 1.0001 0 0 1 0 0.0199 1.0001 1.0001 0 0 1 0.0199 0.059 1.0001 1.0001 0 0 1 0 0.0199 1.0001 1.0001 0 0 1 0 0.0199 1.0001 1.0001 0 0 1 0 0.0199 1.0001 1.0001 0 0 1 0 0.0199 1.0001 1.0001 0 0 1 0 0.0199 1.0001 1.0001 0 0 1 0 0.0199 1.0001 1.0001 0 0 1 0 0.0199 1.0001 1.0001 0 0 1 0 0.0199v3.0469h8.0078v-4.008c1e-3 -0.5082-0.1058-1.012-0.29299-1.4844l-4.0039-10c-0.44069-1.0985-1.3359-1.9366-2.4609-2.3047-0.42201-0.13819-0.8552-0.19769-1.2891-0.1953zm0.0389 29.98v4.0039h8.0078v-4.0039z" fill="#faa"/>
 <path d="m270 133.01c-3.8423 0-6.9922 3.1499-6.9922 6.9922v3.6914c-0.91235-0.43881-1.9335-0.6836-3.0078-0.6836-0.24011 0-0.469 0.0149-0.7031 0.039-3.2779 0.33611-5.9139 2.9721-6.25 6.25-0.0242 0.2341-0.0389 0.463-0.0389 0.7031v10c0 0.12011-6e-3 0.23289 0 0.35161v9.6485c0 14.839 12.153 26.992 26.992 26.992s26.992-12.153 26.992-26.992v-20c-4.8e-4 -3.842-3.1502-6.9918-6.9923-6.9922h-3.0078v-3.0078c0-3.8423-3.1499-6.9922-6.9922-6.9922-1.9504 0-3.7279 0.8075-5 2.1094-1.2722-1.3019-3.0496-2.1094-5-2.1094s-3.7278 0.8075-5 2.1094c-1.2722-1.3019-3.0496-2.1094-5-2.1094z"/>
 <path d="m270 136c-2.5701-0.092-4.3836 2.4961-4.0039 4.9075 0.0171 6.519-0.0341 13.04 0.026 19.558 0.1923 3.156 4.4869 4.7199 6.6915 2.4899 1.9306-1.7817 1.1147-4.5528 1.2907-6.867-0.0145-5.4982 0.027-10.998-0.021-16.495-0.16511-2.0003-1.9764-3.6326-3.9833-3.5929zm10 0c-2.5701-0.092-4.3836 2.4961-4.0039 4.9075v4.6433c2.1748-2.0982 5.2869-1.429 8.0078-1.543-0.182-2.2985 0.62322-4.9973-1.1691-6.8387-0.74016-0.74701-1.7837-1.1751-2.8348-1.1691zm10 0c-2.5701-0.092-4.3836 2.4961-4.0039 4.9075v3.1003h8.0078c-0.18201-2.2985 0.6232-4.9973-1.1691-6.8387-0.74015-0.74701-1.7837-1.1751-2.8348-1.1691zm-30.215 10c-2.4912 0.041-4.1436 2.574-3.7891 4.9075 0.046 3.2927-0.095 6.5967 0.0759 9.8818 0.44769 3.0971 4.7948 4.3451 6.8323 1.9805 1.7047-1.854 0.9187-4.4984 1.0998-6.7698-0.0821-2.3943 0.1861-4.8237-0.17921-7.1903-0.50579-1.725-2.2508-2.9208-4.0396-2.8097zm20.215 0c-3.2604-0.1765-5.2847 4.1502-3.0927 6.5548 1.6917 2.0905 4.5314 1.2957 6.8576 1.453h11.235c1.5622 0.4425 0.8216 2.291 0.9961 3.4981v12.498c-1.4677 2.5523-2.362-0.7938-1.9922-2.2589v-3.288c-2.5554 2.4772-7.1596 1.844-9.0039-1.1719-2.0557 3.4374-7.5305 3.61-9.7898 0.29882-1.1994 0.64978-3.6159 3.1124-5.9807 2.3662-1.8451 0.1685-3.4855-2.1719-4.4397-2.3662-1.9497 2.7846-6.3338 3.2453-8.7937 0.87309 0.0171 4.8175-0.3318 9.7944 1.6719 14.326 3.6443 9.5978 13.941 16.09 24.172 15.155 10.824-0.66231 20.397-9.554 21.886-20.291 0.517-4.354 0.18191-8.7546 0.2779-13.13-0.0499-3.7726 0.10209-7.558-0.0809-11.322-0.38909-2.3096-2.8166-3.4878-4.977-3.1942h-18.946zm-4.0039 8.457c0.0909 2.2907-0.21629 4.6264 0.2229 6.8791 0.91339 3.1053 5.6169 3.6053 7.182 0.7892 1.0218-1.8734 0.455-4.0834 0.60289-6.1254-2.7236-0.12342-5.8306 0.5733-8.0078-1.543zm10 1.543c0.17981 2.2849-0.60859 4.9453 1.128 6.7981 2.0458 2.303 6.3284 1.0804 6.7989-1.9845 0.16398-1.5958 0.0439-3.2098 0.0809-4.8136-2.6693-1e-5 -5.3386-2e-5 -8.0078-3e-5z" fill="#ccc"/>
 <g>
  <path d="m18.244 21.022v-8.3501h-1.6161v-0.64646q1.8855 0 2.2087-1.5084h0.64646v10.505z" color="#000000" style="-inkscape-stroke:none"/>
  <path d="m18.836 10a0.51722 0.51722 0 0 0-0.50586 0.4082c-0.08616 0.40208-0.24507 0.6384-0.5 0.8125s-0.64358 0.28711-1.2031 0.28711a0.51722 0.51722 0 0 0-0.51562 0.51758v0.64648a0.51722 0.51722 0 0 0 0.51562 0.51758h1.0996v7.832a0.51722 0.51722 0 0 0 0.51758 0.51758h1.2383a0.51722 0.51722 0 0 0 0.51758-0.51758v-10.504a0.51722 0.51722 0 0 0-0.51758-0.51758zm0.12891 1.2148v9.291h-0.20312v-7.834a0.51722 0.51722 0 0 0-0.51758-0.51758h-0.12891c0.08739-0.04457 0.21834-0.02316 0.29883-0.07813 0.2857-0.19511 0.3857-0.55459 0.55078-0.86133z" color="#000000" style="-inkscape-stroke:none"/>
 </g>
 <g>
  <path d="m18.136 112.94q0-0.80807-0.3771-1.1852-0.21549-0.21549-0.53872-0.21549-0.43097 0-0.7542 0.32323-0.91582 0.91581-1.1313 3.6094 0.7542-1.239 1.8316-1.239 0.80807 0 1.4545 0.64646 0.86194 0.86195 0.86194 2.6397 0 1.9394-0.91582 2.8552-0.64646 0.64646-1.67 0.64646-0.91582 0-1.67-0.7542-1.1313-1.1313-1.1313-4.3636 0-3.1784 1.5623-4.7407 0.64646-0.64646 1.6161-0.64646 0.80807 0 1.2929 0.48485 0.7542 0.7542 0.80807 1.9394zm-1.1852 2.2626q-0.48484 0-0.86194 0.3771-0.64646 0.64646-0.64646 1.7239 0 1.67 0.7542 2.4242 0.32323 0.32323 0.7542 0.32323t0.80807-0.37711q0.48484-0.48484 0.48484-2.1548 0-1.4545-0.53872-1.9932-0.32323-0.32323-0.7542-0.32323z" color="#000000" style="-inkscape-stroke:none"/>
  <path d="m17.273 110c-0.76138 0-1.4581 0.27643-1.9805 0.79883-1.1655 1.1655-1.7148 2.9018-1.7148 5.1055 0 2.2152 0.35486 3.8002 1.2832 4.7285 0.57681 0.57681 1.2826 0.90625 2.0352 0.90625 0.79125 0 1.5096-0.2694 2.0371-0.79687 0.73961-0.73961 1.0664-1.8483 1.0664-3.2227 0-1.2688-0.31334-2.3036-1.0137-3.0039-0.50716-0.50716-1.1437-0.79883-1.8203-0.79883-0.38146 0-0.72505 0.15089-1.0566 0.33203 0.19131-0.85047 0.43049-1.5262 0.72266-1.8184 0.13422-0.13422 0.23065-0.17188 0.38867-0.17188 0.10056 0 0.11964 0.0103 0.17188 0.0625 0.1208 0.1208 0.22656 0.36205 0.22656 0.82032a0.51722 0.51722 0 0 0 0.51758 0.51757h1.2383a0.51722 0.51722 0 0 0 0.51758-0.54101c-0.04066-0.89451-0.36476-1.687-0.95898-2.2812-0.42481-0.42482-1.018-0.63672-1.6602-0.63672zm0 1.0352c0.43528 0 0.70609 0.11038 0.92774 0.33203 0.27209 0.27209 0.33177 0.67889 0.43555 1.0566h-0.16016c-0.07177-0.37436-0.09704-0.77868-0.35156-1.0332-0.22451-0.22452-0.54721-0.3403-0.86328-0.35157 0.0049-2e-5 0.0068-4e-3 0.01172-4e-3zm-1.1738 0.46484c-0.7747 0.7756-1.1334 2.0834-1.2812 3.9316a0.51722 0.51722 0 0 0 0.66211 0.41992c-0.25728 0.44874-0.55469 0.88169-0.55469 1.4531 0 1.1343 0.26404 2.0412 0.83789 2.6777-0.05599-0.0479-0.11532-0.0235-0.17188-0.0801-0.58006-0.58006-0.97852-1.9035-0.97852-3.998 0-2.0342 0.49264-3.4575 1.4102-4.375 0.02062-0.0206 0.05524-0.01 0.07617-0.0293zm1.0664 3.252c0.33258 0 0.61384 0.17458 0.9043 0.41016 0.05958 0.0483 0.12516 0.0236 0.18555 0.084 0.11692 0.11692 0.09536 0.43581 0.18555 0.5918-0.10319-0.24242-0.19191-0.4966-0.37109-0.67578-0.24955-0.24955-0.59588-0.35209-0.94141-0.39844 0.01327-3.4e-4 0.02372-0.0117 0.03711-0.0117zm-0.21484 0.96875c0.15802 0 0.25445 0.0377 0.38867 0.17188 0.19458 0.19458 0.38672 0.72111 0.38672 1.627 0 1.0633-0.22069 1.6777-0.33398 1.791-0.18175 0.18175-0.30494 0.22461-0.44141 0.22461-0.15802 0-0.25445-0.0377-0.38867-0.17188-0.36784-0.36784-0.60352-1.0231-0.60352-2.0586 0-0.61486 0.1667-1.028 0.49609-1.3574 0.17304-0.17304 0.30694-0.22657 0.49609-0.22657zm1.6992 0.79297c0.09601 0.34838 0.31445 0.51837 0.31445 1.0059 0 1.2115-0.2822 2.0088-0.76367 2.4902-0.01912 0.0191-0.05467 0.0113-0.07422 0.0293 0.53157-0.53321 0.63477-1.3575 0.63477-2.5195 0-0.37968-0.05693-0.69104-0.11133-1.0059z" color="#000000" style="-inkscape-stroke:none"/>
 </g>
 <g>
  <path d="m79.483 19.999v1.0236h-5.4949v-0.86194q1.239-2.3165 3.0707-4.4175 1.0236-1.1852 1.0236-2.4781 0-0.91582-0.48484-1.4007-0.32323-0.32323-0.86194-0.32323-0.43097 0-0.86194 0.43097-0.48484 0.48484-0.48484 1.9932h-1.1852q0.05387-1.9394 0.91582-2.8013 0.64646-0.64646 1.7239-0.64646 1.0236 0 1.7239 0.70033 0.7542 0.7542 0.7542 2.101 0 1.5623-1.4545 3.2323-1.5623 1.7778-2.5858 3.4478z" color="#000000" style="-inkscape-stroke:none"/>
  <path d="m76.844 10c-0.82172 0-1.5573 0.26628-2.0898 0.79883-0.70795 0.70795-1.0304 1.785-1.0684 3.1523a0.51722 0.51722 0 0 0 0.51758 0.53125h1.1855a0.51722 0.51722 0 0 0 0.51758-0.51758c0-0.95019 0.19842-1.4933 0.33203-1.627 0.22637-0.22637 0.38312-0.2793 0.49805-0.2793 0.25571 0 0.38219 0.05797 0.49609 0.17188 0.2081 0.2081 0.33203 0.51392 0.33203 1.0332 0 0.72547-0.27492 1.4209-0.89648 2.1406-1.2445 1.4277-2.2916 2.9317-3.1367 4.5117a0.51722 0.51722 0 0 0-0.06055 0.24414v0.86133a0.51722 0.51722 0 0 0 0.51758 0.51758h5.4941a0.51722 0.51722 0 0 0 0.51758-0.51758v-1.0234a0.51722 0.51722 0 0 0-0.51758-0.51758h-3.168c0.57332-0.84549 1.1555-1.6936 1.9414-2.5879a0.51722 0.51722 0 0 0 0-2e-3c1.0221-1.1736 1.582-2.3703 1.582-3.5723 0-0.99439-0.29266-1.8552-0.9043-2.4668-0.55596-0.55592-1.2895-0.85152-2.0898-0.85152zm0 1.0352c0.56442 0 0.97962 0.17102 1.3574 0.54883 0.39396 0.39396 0.60352 0.93306 0.60352 1.7344 0 0.88102-0.4109 1.8395-1.3281 2.8926-0.64993 0.7397-1.1057 1.4474-1.6211 2.1641 0.52478-0.76618 0.95876-1.5646 1.5938-2.293a0.51722 0.51722 0 0 0 0-2e-3c0.74318-0.86052 1.1504-1.818 1.1504-2.8164 0-0.70181-0.19836-1.3273-0.63672-1.7656-0.29949-0.29949-0.72314-0.4327-1.1582-0.44922 0.01727-2.71e-4 0.02147-0.01367 0.03906-0.01367zm-0.56836 0.20703c-0.26564 0.09924-0.55002 0.14573-0.76758 0.36328-0.05866 0.05866-0.06832 0.15687-0.11719 0.22266 0.04916-0.06442 0.03988-0.24496 0.09375-0.29883 0.19164-0.19164 0.51922-0.20671 0.79102-0.28711zm-1.3438 2.0586c-0.0039 0.04914-0.01074 0.09581-0.01367 0.14648h-0.03125c0.0084-0.0619 0.03493-0.08751 0.04492-0.14648zm-0.09375 6.5371a0.51722 0.51722 0 0 0 0.42578 0.66797h-0.75781v-0.19141c0.08989-0.16608 0.23742-0.31214 0.33203-0.47656z" color="#000000" style="-inkscape-stroke:none"/>
 </g>
 <g>
  <path d="m135.23 17.898q-0.0539 1.1852 0.48484 1.7239 0.3771 0.3771 1.0236 0.3771 0.53871 0 1.0236-0.48484 0.48484-0.48484 0.48484-1.6161 0-0.86194-0.59259-1.4545-0.43097-0.43097-1.2929-0.3771v-0.91582q0.86194-0.05387 1.2929-0.48484 0.43097-0.43097 0.43097-1.2929 0-1.0774-0.48484-1.5623-0.32323-0.32323-0.80807-0.32323t-0.80807 0.32323q-0.53872 0.53872-0.59259 1.6161h-1.1852q0.0539-1.4007 0.91581-2.2626 0.64646-0.64646 1.67-0.64646 1.0774 0 1.7239 0.64646 0.7542 0.7542 0.7542 1.9932 0 1.1313-0.59259 1.7239-0.53871 0.53871-1.0236 0.70033 0.70033 0.21549 1.0774 0.59259 0.7542 0.7542 0.7542 1.8316 0 1.4007-0.86194 2.2626-0.7542 0.7542-1.8855 0.7542-1.239 0-1.9394-0.70033-0.80807-0.80807-0.80807-2.4242z" color="#000000" style="-inkscape-stroke:none"/>
  <path d="m136.79 10c-0.79125 0-1.5077 0.27136-2.0352 0.79883-0.66984 0.66986-1.0266 1.5719-1.0664 2.6074a0.51722 0.51722 0 0 0 0.51562 0.53711h1.1856a0.51722 0.51722 0 0 0 0.51563-0.49219c0.0318-0.63671 0.20001-1.032 0.44336-1.2754 0.12406-0.12406 0.2331-0.17188 0.4414-0.17188s0.3193 0.04781 0.44336 0.17188c0.18779 0.18779 0.33203 0.55655 0.33203 1.1973 0 0.48844-0.11388 0.76036-0.27929 0.92578-0.17304 0.17304-0.4647 0.30504-0.95899 0.33594a0.51722 0.51722 0 0 0-0.48437 0.51562v0.91602a0.51722 0.51722 0 0 0 0.54882 0.51562c0.48358-0.03022 0.73674 0.06876 0.89454 0.22656 0.3064 0.3064 0.4414 0.63373 0.4414 1.0898 0 0.68032-0.15297 1.069-0.33398 1.25-0.25552 0.25551-0.45226 0.33203-0.65625 0.33203-0.33042 0-0.51129-0.07769-0.65821-0.22461-0.21897-0.21896-0.3662-0.62554-0.33398-1.334a0.51722 0.51722 0 0 0-0.51758-0.54102h-1.2383a0.51722 0.51722 0 0 0-0.51758 0.51758c0 1.1636 0.29838 2.1285 0.95899 2.7891 0.57472 0.57472 1.3832 0.85156 2.3066 0.85156 0.86912 0 1.6558-0.31203 2.25-0.90625 0.67367-0.67367 1.0137-1.5871 1.0137-2.627 0-0.83896-0.31638-1.6074-0.90625-2.1973-0.12376-0.12376-0.3313-0.17412-0.48438-0.27148 0.14122-0.11062 0.29235-0.15172 0.43165-0.29102 0.51141-0.51141 0.74414-1.2453 0.74414-2.0898 0-0.93096-0.30332-1.7545-0.90625-2.3574-0.53256-0.53255-1.2681-0.79883-2.0898-0.79883zm1.1797 1.4648c0.0463 0.03749 0.13462 0.02134 0.17773 0.06445 0.40267 0.40267 0.60352 0.90586 0.60352 1.627 0 0.6639-0.1627 1.0807-0.44141 1.3594-0.0574 0.05742-0.0917 0.05291-0.14648 0.10156 0.22164-0.36927 0.4375-0.74823 0.4375-1.2441 0-0.78787-0.18237-1.4499-0.63086-1.9082zm-2.3691 0.02148c-0.33786 0.35162-0.43827 0.88776-0.53906 1.4219h-0.125c0.11263-0.51289 0.2039-1.034 0.54882-1.3789 0.0295-0.02948 0.0847-0.01618 0.11524-0.04297zm1.7441 3.8086a0.51722 0.51722 0 0 0 0 0.57227c-0.15189-0.06021-0.29851-0.12108-0.46875-0.14648v-0.24414c0.17181-0.03927 0.31713-0.11303 0.46875-0.18164zm0.81836 1.1367c0.0522 0.03899 0.16089 0.06714 0.20117 0.10742 0.41573 0.41573 0.60156 0.86918 0.60156 1.4668 0 0.82769-0.2334 1.4209-0.70898 1.8965-0.36812 0.36812-0.81822 0.50472-1.3594 0.54102 0.44825-0.04878 0.88253-0.21847 1.2285-0.56445 0.46544-0.46544 0.63672-1.1524 0.63672-1.9805 0-0.55853-0.28087-1.0304-0.59961-1.4668zm-3.4922 1.9824h0.0937c0.011 0.14049 0.013 0.28552 0.0391 0.41602-0.0413-0.14244-0.10933-0.24881-0.13281-0.41602zm0.27735 0.87109c0.10244 0.25601 0.20723 0.50998 0.39843 0.70117 0.27781 0.2778 0.68556 0.35256 1.0859 0.41211-0.51511-0.05868-0.98006-0.15193-1.2695-0.44141-0.13608-0.13608-0.11869-0.48226-0.21484-0.67188z" color="#000000" style="-inkscape-stroke:none"/>
 </g>
 <g>
  <path d="m197.11 21.022v-2.4781h-3.6094v-1.0236l3.6094-7.0033h1.239v7.0033h1.1313v1.0236h-1.1313v2.4781zm0-3.5016v-4.7407l-2.4242 4.7407z" color="#000000" style="-inkscape-stroke:none"/>
  <path d="m197.11 10a0.51722 0.51722 0 0 0-0.46094 0.2793l-3.6094 7.0039a0.51722 0.51722 0 0 0-0.0566 0.23633v1.0254a0.51722 0.51722 0 0 0 0.51758 0.51562h3.0918v1.9609a0.51722 0.51722 0 0 0 0.51758 0.51758h1.2383a0.51722 0.51722 0 0 0 0.51758-0.51758v-1.9609h0.61328a0.51722 0.51722 0 0 0 0.51754-0.51562v-1.0254a0.51722 0.51722 0 0 0-0.51758-0.51562h-0.61328v-6.4863a0.51722 0.51722 0 0 0-0.51758-0.51758zm0.31445 1.0352h0.40625v6.4844a0.51722 0.51722 0 0 0 0.51368 0.51172 0.51722 0.51722 0 0 0-0.51368 0.51367v1.9609h-0.20507v-1.9609a0.51722 0.51722 0 0 0-0.51172-0.51367 0.51722 0.51722 0 0 0 0.51172-0.51172v-4.7402a0.51722 0.51722 0 0 0-0.97657-0.23438l-2.4238 4.7402a0.51722 0.51722 0 0 0 0.4414 0.74219h-0.65039v-0.38086zm-0.83203 3.8906v2.0781h-1.0625z" color="#000000" style="-inkscape-stroke:none"/>
 </g>
 <g>
  <path d="m255.23 18.059q0 1.0774 0.53871 1.6161 0.32323 0.32323 0.91582 0.32323 0.48484 0 0.91581-0.43097 0.64646-0.64646 0.64646-2.1549 0-1.4007-0.53872-1.9394-0.32323-0.32323-0.7542-0.32323-0.96968 0-1.5623 1.1313h-1.0774l0.32323-5.7642h4.633v1.0236h-3.6094l-0.21549 3.5016q0.70033-0.80807 1.7778-0.80807 0.80807 0 1.4007 0.59259 0.86194 0.86194 0.86194 2.5858 0 1.8316-1.0236 2.8552-0.7542 0.7542-1.8316 0.7542-1.1313 0-1.7778-0.64646-0.80808-0.80807-0.86195-2.3165z" color="#000000" style="-inkscape-stroke:none"/>
  <path d="m254.63 10a0.51722 0.51722 0 0 0-0.51758 0.48828l-0.32227 5.7637a0.51722 0.51722 0 0 0 0.51563 0.54688h1.0781a0.51722 0.51722 0 0 0 0.45899-0.27734c0.34126-0.65149 0.65818-0.85352 1.1035-0.85352 0.15802 0 0.25445 0.03765 0.38867 0.17188 0.20068 0.20068 0.38672 0.7048 0.38672 1.5723 0 0.93172-0.20538 1.5003-0.49414 1.7891-0.21874 0.21875-0.38079 0.2793-0.55078 0.2793-0.30103 0-0.44703-0.06618-0.55078-0.16992-0.23724-0.23725-0.38672-0.61986-0.38672-1.252a0.51722 0.51722 0 0 0-0.51758-0.51562h-1.2383a0.51722 0.51722 0 0 0-0.51758 0.53516c0.0391 1.0945 0.36525 2.0156 1.0137 2.6641 0.53763 0.53763 1.2899 0.79688 2.1426 0.79688 0.83896 0 1.6074-0.31638 2.1973-0.90625 0.79144-0.79144 1.1758-1.9033 1.1758-3.2207 0-1.2354-0.31715-2.2546-1.0137-2.9512-0.47817-0.47817-1.1005-0.74414-1.7656-0.74414-0.42312 0-0.82673 0.08752-1.1934 0.25391l0.11719-1.9121h3.123a0.51722 0.51722 0 0 0 0.51758-0.51758v-1.0234a0.51722 0.51722 0 0 0-0.51758-0.51758zm0.48828 1.0352h0.52343a0.51722 0.51722 0 0 0-0.5039 0.47461l-0.2168 3.5a0.51722 0.51722 0 0 0 0.4707 0.47656c-0.0795 0.09132-0.16381 0.17296-0.23437 0.27734h-0.30274zm2.9531 4.082c0.0546 0.04338 0.12559 0.02207 0.17969 0.07617 0.11994 0.11994 0.0961 0.43065 0.1875 0.58789-0.10213-0.23801-0.19179-0.48652-0.36719-0.66406zm0.57227 1.3047c0.0971 0.34106 0.3164 0.51579 0.3164 0.99023 0 1.1248-0.29778 1.9169-0.87109 2.4902-0.18662 0.18662-0.44694 0.17327-0.6582 0.27148 0.17357-0.0959 0.38079-0.09369 0.52734-0.24023 0.57319-0.57318 0.79883-1.442 0.79883-2.5215 0-0.37173-0.0567-0.68021-0.11328-0.99023zm-3.9512 2.1543h0.1914c0.0838 0.54744 0.15621 1.1093 0.51172 1.4648 0.31672 0.31671 0.76846 0.44978 1.2402 0.45898-6e-3 3.3e-5 -8e-3 0.0059-0.0137 0.0059-0.65569 0-1.0878-0.17178-1.4121-0.49609-0.31238-0.31238-0.41006-0.87684-0.51757-1.4336z" color="#000000" style="-inkscape-stroke:none"/>
 </g>
 <g>
  <path d="m75.712 121.02 2.6397-9.4814h-3.9865v-1.0236h5.1178v1.1313l-2.532 9.3736z" color="#000000" style="-inkscape-stroke:none"/>
  <path d="m74.365 110a0.51722 0.51722 0 0 0-0.51758 0.51758v1.0234a0.51722 0.51722 0 0 0 0.51758 0.51757h3.3047l-2.457 8.8242a0.51722 0.51722 0 0 0 0.49805 0.65625h1.2402a0.51722 0.51722 0 0 0 0.49805-0.38281l2.5332-9.373a0.51722 0.51722 0 0 0 0.017578-0.13476v-1.1309a0.51722 0.51722 0 0 0-0.51758-0.51758zm4.0234 1.0352h0.57617v0.54492l-2.4102 8.9258h-0.16211l2.457-8.8262a0.51722 0.51722 0 0 0-0.46094-0.64453z" color="#000000" style="-inkscape-stroke:none"/>
 </g>
 <g>
  <path d="m136.68 116.12q-0.59259 0-1.0236 0.43097-0.53872 0.53871-0.53872 1.4545 0 1.0774 0.53872 1.6161 0.43097 0.43098 1.0236 0.43098 0.59258 0 1.0236-0.43098 0.53872-0.53871 0.53872-1.6161 0-0.91582-0.53872-1.4545-0.43097-0.43097-1.0236-0.43097zm1.0774-0.48485q0.48484 0.16162 0.86194 0.53872 0.86194 0.86194 0.86194 1.8316 0 1.4545-0.86194 2.3165-0.70033 0.70033-1.9394 0.70033-1.239 0-1.9394-0.70033-0.86194-0.86194-0.86194-2.3165 0-0.96969 0.86194-1.8316 0.3771-0.3771 0.86195-0.53872-0.43098-0.16161-0.70033-0.43097-0.7542-0.7542-0.7542-1.7778v-0.0539q0-1.3468 0.80807-2.1549 0.70033-0.70033 1.7239-0.70033 1.0236 0 1.7239 0.70033 0.80808 0.80807 0.80808 2.1549v0.0539q0 1.0236-0.7542 1.7778-0.26936 0.26936-0.70033 0.43097zm-1.0774-4.1481q-0.53872 0-0.91582 0.3771-0.43097 0.43097-0.43097 1.5084v0.0539q0 0.96969 0.43097 1.4007 0.3771 0.3771 0.91582 0.3771 0.53871 0 0.91581-0.3771 0.43097-0.43097 0.43097-1.4007v-0.0539q0-1.0774-0.43097-1.5084-0.3771-0.3771-0.91581-0.3771z" color="#000000" style="-inkscape-stroke:none"/>
  <path d="m136.68 110c-0.80032 0-1.5339 0.2956-2.0898 0.85156-0.6403 0.6403-0.95899 1.5202-0.95899 2.5215v0.0527c0 0.8094 0.31878 1.559 0.9043 2.1445 0.0302 0.0302 0.0793 0.0401 0.11133 0.0684-0.0847 0.0672-0.19397 0.0924-0.27149 0.16992-0.64319 0.6432-1.0137 1.3976-1.0137 2.1973 0 1.0718 0.3362 2.0042 1.0137 2.6816 0.57472 0.57472 1.3812 0.85156 2.3047 0.85156 0.92346 0 1.73-0.27684 2.3047-0.85156 0.67748-0.67748 1.0137-1.6098 1.0137-2.6816 0-0.79969-0.37048-1.5541-1.0137-2.1973-0.0775-0.0775-0.18682-0.1027-0.27149-0.16992 0.0317-0.028 0.0795-0.0385 0.10938-0.0684 0.58551-0.58551 0.90625-1.3351 0.90625-2.1445v-0.0527c0-1.0013-0.31868-1.8812-0.95899-2.5215-0.55596-0.55596-1.2895-0.85156-2.0898-0.85156zm-1.3008 1.5606c-0.40604 0.43832-0.5625 1.0515-0.5625 1.8125v0.0527c0 0.58172 0.20775 1.022 0.46875 1.4219-4e-3 -4e-3 -0.0136-6e-3 -0.0176-0.01-0.42008-0.42008-0.60351-0.85676-0.60351-1.4121v-0.0527c0-0.79443 0.22107-1.3519 0.6582-1.7891 0.0158-0.0158 0.0407-8e-3 0.0566-0.0234zm2.6016 0c0.016 0.0151 0.0408 8e-3 0.0566 0.0234 0.43714 0.43714 0.65821 0.99464 0.65821 1.7891v0.0527c0 0.55535-0.18344 0.99203-0.60352 1.4121-4e-3 4e-3 -0.0135 6e-3 -0.0176 0.01 0.261-0.39985 0.46875-0.84016 0.46875-1.4219v-0.0527c0-0.76099-0.15646-1.3742-0.5625-1.8125zm-1.3008 0.44336c0.23847 0 0.38645 0.0622 0.55078 0.22656 0.13494 0.13494 0.2793 0.49325 0.2793 1.1426v0.0527c0 0.56984-0.12912 0.88498-0.2793 1.0352-0.16433 0.16433-0.31231 0.22656-0.55078 0.22656-0.23848 0-0.38645-0.0622-0.55078-0.22656-0.15018-0.15018-0.2793-0.46532-0.2793-1.0352v-0.0527c0-0.64933 0.14436-1.0076 0.2793-1.1426 0.16433-0.16433 0.3123-0.22656 0.55078-0.22656zm0.70703 3.4258a0.51722 0.51722 0 0 0 0.0606 0.49609c-0.20939-0.0984-0.39443-0.24459-0.62695-0.26367 0.20982-0.0182 0.37703-0.14533 0.5664-0.23242zm-1.3066 0.043c0.15789 0.0605 0.2888 0.17465 0.45899 0.18945-0.17957 0.0147-0.31731 0.14042-0.48438 0.20312a0.51722 0.51722 0 0 0 0.0254-0.39257zm-0.9082 1.0234c-0.31724 0.43267-0.57227 0.91943-0.57227 1.5098 0 0.80448 0.21036 1.4994 0.69141 1.9805 0.13154 0.13154 0.33347 0.11793 0.49219 0.20703-0.21088-0.0902-0.52315-0.0817-0.67774-0.23633-0.47177-0.47177-0.71094-1.0836-0.71094-1.9512 0-0.49323 0.20488-0.96074 0.71094-1.4668 0.0202-0.0202 0.0459-0.0241 0.0664-0.043zm3.0156 0c0.0205 0.0189 0.0462 0.0228 0.0664 0.043 0.50606 0.50606 0.70898 0.97357 0.70898 1.4668 0 0.86753-0.23721 1.4794-0.70898 1.9512-0.15458 0.15459-0.46686 0.14613-0.67774 0.23633 0.15873-0.0891 0.36065-0.0755 0.49219-0.20703 0.48105-0.48104 0.69141-1.176 0.69141-1.9805 0-0.59034-0.25502-1.0771-0.57227-1.5098zm-1.5078 0.14063c0.26968 0 0.45469 0.0758 0.6582 0.2793 0.25554 0.25552 0.38672 0.5807 0.38672 1.0898 0 0.63209-0.14947 1.0128-0.38672 1.25-0.20351 0.20351-0.38852 0.2793-0.6582 0.2793s-0.45469-0.0758-0.6582-0.2793c-0.23725-0.23724-0.38672-0.61791-0.38672-1.25 0-0.50914 0.13119-0.83432 0.38672-1.0898 0.20351-0.20351 0.38851-0.2793 0.6582-0.2793z" color="#000000" style="-inkscape-stroke:none"/>
 </g>
 <g>
  <path d="m198.24 111.16q1.239 1.239 1.239 4.4713 0 3.2862-1.4545 4.7407-0.64646 0.64646-1.6161 0.64646-0.80807 0-1.2929-0.48484-0.86194-0.86195-0.91581-1.9394h1.239q0 0.70033 0.48484 1.1852 0.21549 0.21548 0.59259 0.21548t0.70033-0.32323q0.80807-0.80807 1.0236-3.3939-0.59259 1.239-1.8316 1.239-0.80807 0-1.4545-0.64646-0.86195-0.86195-0.86195-2.8552 0-1.8316 0.96969-2.8013 0.70033-0.70033 1.6162-0.70033 0.91581 0 1.5623 0.64646zm-0.80807 0.64646q-0.32323-0.32323-0.80808-0.32323-0.32322 0-0.70033 0.3771-0.59258 0.59259-0.59258 2.1549 0 1.67 0.53871 2.2087 0.32323 0.32323 0.7542 0.32323 0.48485 0 0.86195-0.3771 0.64646-0.64646 0.64646-1.9394 0-1.7239-0.70033-2.4242z" color="#000000" style="-inkscape-stroke:none"/>
  <path d="m196.68 110c-0.74237 0-1.4358 0.30497-1.9824 0.85156-0.76158 0.76159-1.1211 1.8556-1.1211 3.168 1e-5 1.4034 0.2981 2.5051 1.0137 3.2207 0.50715 0.50716 1.1437 0.79688 1.8203 0.79688 0.32488 0 0.59672-0.14988 0.88086-0.26563-0.15622 0.51505-0.25719 1.3588-0.4375 1.5391-0.14438 0.14438-0.2323 0.16992-0.33594 0.16992-0.15289 0-0.18956-0.0255-0.22656-0.0625-0.23519-0.2352-0.33399-0.47277-0.33399-0.82031a0.51722 0.51722 0 0 0-0.51562-0.51758h-1.2402a0.51722 0.51722 0 0 0-0.51562 0.54297c0.0424 0.84881 0.4194 1.6323 1.0664 2.2793 0.42481 0.42481 1.016 0.63672 1.6582 0.63672 0.76138 0 1.46-0.27448 1.9824-0.79687 1.1074-1.1074 1.6055-2.8404 1.6055-5.1074 0-2.2209-0.4056-3.8509-1.3906-4.8359-0.51731-0.51732-1.1955-0.79883-1.9277-0.79883zm1.1562 1.5137c0.0117 0.0112 0.0293 4e-3 0.041 0.0156 0.16199 0.16199 0.25434 0.49493 0.38476 0.73828-0.11827-0.27291-0.23369-0.54841-0.42578-0.75391zm-2.2969 0.0215c-0.53306 0.55639-0.72266 1.3972-0.72266 2.4844 0 1.1676 0.14093 2.0241 0.6875 2.5723-0.0586-0.0477-0.12226-0.0246-0.18164-0.084-0.43369-0.43369-0.71094-1.234-0.71094-2.4883 0-1.1298 0.28703-1.9042 0.81836-2.4356 0.034-0.034 0.0754-0.0183 0.10938-0.0488zm1.0859 0.46875c0.20831 0 0.3193 0.0478 0.44336 0.17187 0.31686 0.31686 0.54883 0.97938 0.54883 2.0586 0 0.77575-0.18702 1.2651-0.49609 1.5742-0.17304 0.17304-0.30694 0.22461-0.4961 0.22461-0.15802 0-0.25445-0.0376-0.38867-0.17187-0.1702-0.17021-0.38672-0.78407-0.38672-1.8418 0-0.97612 0.20704-1.5547 0.44141-1.7891 0.19917-0.19916 0.31963-0.22656 0.33398-0.22656zm1.8359 0.64453c0.2918 0.7439 0.50195 1.6667 0.50195 2.9863 0 2.1145-0.47074 3.543-1.3027 4.375-0.0206 0.0206-0.0553 0.01-0.0762 0.0293 0.7167-0.71765 1.0262-1.943 1.1738-3.7148a0.51722 0.51722 0 0 0-0.46875-0.50977c0.2168-0.46044 0.36132-0.97381 0.36132-1.5801 0-0.59644-0.0598-1.1249-0.18945-1.5859zm-2.8848 3.9746c0.24201 0.21977 0.55233 0.32863 0.87305 0.37109-0.0155 2.9e-4 -0.0232 0.01-0.0391 0.01-0.30733 0-0.56592-0.18246-0.83399-0.38086zm-0.59765 2.4922h0.1582c0.0972 0.3678 0.14986 0.75924 0.42383 1.0332 0.23296 0.23295 0.56446 0.32666 0.89062 0.34179-0.017 3.4e-4 -0.0237 0.0156-0.041 0.0156-0.43528 0-0.70608-0.11234-0.92774-0.33398-0.3317-0.33171-0.38807-0.69817-0.5039-1.0566z" color="#000000" style="-inkscape-stroke:none"/>
 </g>
 <g stroke-linecap="round" stroke-linejoin="round" stroke-width="1.0343" style="paint-order:markers fill stroke">
  <path d="m259.19 121.02v-8.3501h-1.6161v-0.64646q1.8855 0 2.2087-1.5084h0.64645v10.505z" color="#000000" style="-inkscape-stroke:none"/>
  <path d="m259.79 110a0.51722 0.51722 0 0 0-0.50391 0.4082c-0.0862 0.40208-0.24507 0.63841-0.5 0.8125-0.25493 0.1741-0.64358 0.28711-1.2031 0.28711a0.51722 0.51722 0 0 0-0.51757 0.51758v0.64649a0.51722 0.51722 0 0 0 0.51757 0.51757h1.0977v7.832a0.51722 0.51722 0 0 0 0.51758 0.51758h1.2383a0.51722 0.51722 0 0 0 0.51758-0.51758v-10.504a0.51722 0.51722 0 0 0-0.51758-0.51758zm0.13086 1.2109v9.2949h-0.20508v-7.834a0.51722 0.51722 0 0 0-0.51758-0.51758h-0.12891c0.0875-0.0446 0.21826-0.0231 0.29883-0.0781 0.28691-0.19594 0.38749-0.55681 0.55274-0.86523z" color="#000000" style="-inkscape-stroke:none"/>
 </g>
 <g>
  <path d="m263.56 115.74q0-3.1784 1.2929-4.4713 0.7542-0.7542 1.67-0.7542 0.91582 0 1.67 0.7542 1.2929 1.2929 1.2929 4.4713 0 3.2323-1.2929 4.5252-0.7542 0.7542-1.67 0.7542-0.91581 0-1.67-0.7542-1.2929-1.2929-1.2929-4.5252zm4.6868 0q0-2.8552-1.0236-3.8788-0.32323-0.32323-0.70033-0.32323t-0.70033 0.32323q-1.0236 1.0774-1.0236 3.8788 0 2.9091 1.0236 3.9326 0.32323 0.32323 0.70033 0.32323t0.70033-0.32323q1.0236-1.0236 1.0236-3.9326z" color="#000000" style="-inkscape-stroke:none"/>
  <path d="m266.52 110c-0.75251 0-1.4584 0.32944-2.0352 0.90625-1.0118 1.0118-1.4453 2.6469-1.4453 4.8359 0 2.2238 0.431 3.8763 1.4453 4.8906 0.57681 0.57681 1.2826 0.90625 2.0352 0.90625s1.4584-0.32944 2.0352-0.90625c1.0143-1.0143 1.4453-2.6668 1.4453-4.8906 0-2.1891-0.43354-3.8242-1.4453-4.8359-0.57681-0.57681-1.2826-0.90625-2.0352-0.90625zm-1.0898 1.5371c-0.8208 0.88223-1.1504 2.291-1.1504 4.2051 0 1.9785 0.31932 3.4028 1.1543 4.2617-0.0711-0.058-0.14681-0.0296-0.21875-0.10157-0.70957-0.70956-1.1406-2.0742-1.1406-4.1602 0-2.0488 0.42851-3.3934 1.1406-4.1055 0.0707-0.0707 0.14498-0.0424 0.21485-0.0996zm2.1758 0c0.0709 0.0579 0.14701 0.0279 0.21875 0.0996 0.71211 0.71211 1.1406 2.0566 1.1406 4.1055 0 2.0859-0.43105 3.4506-1.1406 4.1602-0.0719 0.0719-0.14765 0.0436-0.21875 0.10157 0.83497-0.85889 1.1562-2.2832 1.1562-4.2617 0-1.943-0.32532-3.3495-1.1562-4.2051zm-1.0859 0.52148c0.10364 0 0.19156 0.0275 0.33594 0.17188 0.51236 0.51236 0.87109 1.6701 0.87109 3.5117 0 1.8787-0.36194 3.0592-0.87109 3.5684-0.14438 0.14438-0.2323 0.16992-0.33594 0.16992s-0.1896-0.0255-0.33398-0.16992c-0.50915-0.50915-0.87305-1.6896-0.87305-3.5684 0-1.8002 0.35281-2.958 0.87891-3.5156 0.1396-0.13744 0.22641-0.16797 0.32812-0.16797z" color="#000000" style="-inkscape-stroke:none"/>
 </g>
</svg>
